<svg width="36" height="35" viewBox="0 0 36 35" fill="none" xmlns="http://www.w3.org/2000/svg">
<path d="M1.25 23.75H0.3125C0.3125 24.2678 0.732233 24.6875 1.25 24.6875L1.25 23.75ZM3.75 24.6875C4.26777 24.6875 4.6875 24.2678 4.6875 23.75C4.6875 23.2322 4.26777 22.8125 3.75 22.8125V24.6875ZM5.23368 18.5654C5.7351 18.4364 6.03697 17.9253 5.90791 17.4238C5.77885 16.9224 5.26774 16.6205 4.76632 16.7496L5.23368 18.5654ZM7.18758 14.4205C7.67575 14.5931 8.21137 14.3372 8.38391 13.849C8.55646 13.3609 8.30059 12.8253 7.81242 12.6527L7.18758 14.4205ZM7.81242 7.34731C8.30059 7.17476 8.55646 6.63915 8.38391 6.15098C8.21137 5.6628 7.67575 5.40694 7.18758 5.57948L7.81242 7.34731ZM28.75 23.75V24.6875C29.2678 24.6875 29.6875 24.2678 29.6875 23.75H28.75ZM26.25 22.8125C25.7322 22.8125 25.3125 23.2322 25.3125 23.75C25.3125 24.2678 25.7322 24.6875 26.25 24.6875V22.8125ZM25.2337 16.7496C24.7323 16.6205 24.2211 16.9224 24.0921 17.4238C23.963 17.9253 24.2649 18.4364 24.7663 18.5654L25.2337 16.7496ZM22.8124 5.57948C22.3242 5.40694 21.7886 5.6628 21.6161 6.15098C21.4435 6.63915 21.6994 7.17476 22.1876 7.34731L22.8124 5.57948ZM22.1876 12.6527C21.6994 12.8253 21.4435 13.3609 21.6161 13.849C21.7886 14.3372 22.3242 14.5931 22.8124 14.4205L22.1876 12.6527ZM22.5 23.75V24.6875C23.0178 24.6875 23.4375 24.2678 23.4375 23.75H22.5ZM7.5 23.75H6.5625C6.5625 24.2678 6.98223 24.6875 7.5 24.6875V23.75ZM0.3125 22.5V23.75H2.1875V22.5H0.3125ZM1.25 24.6875H3.75V22.8125H1.25V24.6875ZM2.1875 22.5C2.1875 20.6083 3.48129 19.0165 5.23368 18.5654L4.76632 16.7496C2.20564 17.4087 0.3125 19.7321 0.3125 22.5H2.1875ZM4.0625 10C4.0625 12.0424 5.36823 13.7775 7.18758 14.4205L7.81242 12.6527C6.71879 12.2662 5.9375 11.2231 5.9375 10H4.0625ZM7.18758 5.57948C5.36823 6.22253 4.0625 7.95758 4.0625 10H5.9375C5.9375 8.7769 6.71879 7.73385 7.81242 7.34731L7.18758 5.57948ZM27.8125 22.5V23.75H29.6875V22.5H27.8125ZM28.75 22.8125H26.25V24.6875H28.75V22.8125ZM29.6875 22.5C29.6875 19.7321 27.7944 17.4087 25.2337 16.7496L24.7663 18.5654C26.5187 19.0165 27.8125 20.6083 27.8125 22.5H29.6875ZM22.1876 7.34731C23.2812 7.73385 24.0625 8.7769 24.0625 10H25.9375C25.9375 7.95758 24.6318 6.22253 22.8124 5.57948L22.1876 7.34731ZM24.0625 10C24.0625 11.2231 23.2812 12.2662 22.1876 12.6527L22.8124 14.4205C24.6318 13.7775 25.9375 12.0424 25.9375 10H24.0625ZM12.5 18.4375H17.5V16.5625H12.5V18.4375ZM21.5625 22.5V23.75H23.4375V22.5H21.5625ZM8.4375 23.75V22.5H6.5625V23.75H8.4375ZM17.5 18.4375C19.7437 18.4375 21.5625 20.2563 21.5625 22.5H23.4375C23.4375 19.2208 20.7792 16.5625 17.5 16.5625V18.4375ZM12.5 16.5625C9.22081 16.5625 6.5625 19.2208 6.5625 22.5H8.4375C8.4375 20.2563 10.2563 18.4375 12.5 18.4375V16.5625ZM22.5 22.8125H7.5V24.6875H22.5V22.8125ZM17.8125 10C17.8125 11.5533 16.5533 12.8125 15 12.8125V14.6875C17.5888 14.6875 19.6875 12.5888 19.6875 10H17.8125ZM15 12.8125C13.4467 12.8125 12.1875 11.5533 12.1875 10H10.3125C10.3125 12.5888 12.4112 14.6875 15 14.6875V12.8125ZM12.1875 10C12.1875 8.4467 13.4467 7.1875 15 7.1875V5.3125C12.4112 5.3125 10.3125 7.41117 10.3125 10H12.1875ZM15 7.1875C16.5533 7.1875 17.8125 8.4467 17.8125 10H19.6875C19.6875 7.41117 17.5888 5.3125 15 5.3125V7.1875Z" fill="#E9CCA7"/>
<rect x="19" y="18" width="17" height="17" rx="8.5" fill="#E9CCA7"/>
<path d="M24.3516 25.9274C24.0355 25.9274 23.7793 26.1835 23.7793 26.4996C23.7793 26.8156 24.0355 27.0718 24.3516 27.0718V25.9274ZM30.6479 27.0718C30.9639 27.0718 31.2201 26.8156 31.2201 26.4996C31.2201 26.1835 30.9639 25.9274 30.6479 25.9274V27.0718ZM28.0719 23.3514C28.0719 23.0354 27.8157 22.7792 27.4997 22.7792C27.1837 22.7792 26.9275 23.0354 26.9275 23.3514H28.0719ZM26.9275 29.6477C26.9275 29.9638 27.1837 30.2199 27.4997 30.2199C27.8157 30.2199 28.0719 29.9638 28.0719 29.6477H26.9275ZM24.3516 27.0718H30.6479V25.9274H24.3516V27.0718ZM26.9275 23.3514V29.6477H28.0719V23.3514H26.9275Z" fill="#242527"/>
</svg>
