<svg width="16" height="16" viewBox="0 0 16 16" fill="none" xmlns="http://www.w3.org/2000/svg">
<path d="M15.2407 8.11621C15.4793 7.89122 15.4903 7.51544 15.2653 7.27688C15.0403 7.03832 14.6645 7.02732 14.426 7.25231L15.2407 8.11621ZM8.47054 13.6852L8.06316 13.2532L8.06316 13.2532L8.47054 13.6852ZM5.53147 14.8333L5.53147 15.4271L5.53147 14.8333ZM1.375 10.9133H0.78125H1.375ZM2.5924 8.14135L2.99978 8.5733L2.5924 8.14135ZM8.95519 2.14044L8.54781 1.70849L8.54781 1.70849L8.95519 2.14044ZM10.9146 1.375L10.9146 1.96875L10.9146 1.375ZM12.874 5.83632L13.2811 6.26849L13.2813 6.26827L12.874 5.83632ZM6.50424 11.8372L6.09709 11.4051L6.09686 11.4053L6.50424 11.8372ZM4.54486 9.98929L4.13773 9.5571L4.13748 9.55734L4.54486 9.98929ZM10.8301 4.88419C11.0688 4.65934 11.08 4.28356 10.8552 4.04487C10.6303 3.80618 10.2546 3.79496 10.0159 4.01981L10.8301 4.88419ZM14.426 7.25231L8.06316 13.2532L8.87792 14.1171L15.2407 8.11621L14.426 7.25231ZM8.06316 13.2532C7.39733 13.8812 6.48722 14.2396 5.53147 14.2396L5.53147 15.4271C6.78046 15.4271 7.98477 14.9595 8.87792 14.1171L8.06316 13.2532ZM5.53147 14.2396C4.57573 14.2396 3.66561 13.8812 2.99978 13.2532L2.18502 14.1171C3.07817 14.9595 4.28249 15.4271 5.53147 15.4271L5.53147 14.2396ZM2.99978 13.2532C2.33513 12.6264 1.96875 11.7839 1.96875 10.9133H0.78125C0.78125 12.122 1.29069 13.2737 2.18502 14.1171L2.99978 13.2532ZM1.96875 10.9133C1.96875 10.0427 2.33513 9.20015 2.99978 8.5733L2.18502 7.7094C1.29069 8.55286 0.78125 9.70453 0.78125 10.9133H1.96875ZM2.99978 8.5733L9.36257 2.57239L8.54781 1.70849L2.18502 7.7094L2.99978 8.5733ZM9.36257 2.57239C9.76858 2.18948 10.3263 1.96875 10.9146 1.96875L10.9146 0.78125C10.033 0.78125 9.18113 1.11119 8.54781 1.70849L9.36257 2.57239ZM10.9146 1.96875C11.5029 1.96875 12.0606 2.18948 12.4666 2.57239L13.2813 1.70849C12.648 1.11119 11.7961 0.78125 10.9146 0.78125L10.9146 1.96875ZM12.4666 2.57239C12.8714 2.95419 13.0918 3.46433 13.0918 3.98838L14.2793 3.98838C14.2793 3.12621 13.9158 2.3069 13.2813 1.70849L12.4666 2.57239ZM13.0918 3.98838C13.0918 4.51243 12.8714 5.02258 12.4666 5.40437L13.2813 6.26827C13.9158 5.66986 14.2793 4.85056 14.2793 3.98838L13.0918 3.98838ZM12.4668 5.40415L6.09709 11.4051L6.91138 12.2694L13.2811 6.26849L12.4668 5.40415ZM6.09686 11.4053C5.95068 11.5431 5.74538 11.6262 5.52455 11.6262V12.8137C6.03862 12.8137 6.53813 12.6214 6.91162 12.2692L6.09686 11.4053ZM5.52455 11.6262C5.30371 11.6262 5.09841 11.5431 4.95224 11.4053L4.13748 12.2692C4.51097 12.6214 5.01047 12.8137 5.52455 12.8137V11.6262ZM4.95224 11.4053C4.80725 11.2685 4.73281 11.0908 4.73281 10.9133H3.54531C3.54531 11.4289 3.76281 11.9158 4.13748 12.2692L4.95224 11.4053ZM4.73281 10.9133C4.73281 10.7358 4.80725 10.558 4.95224 10.4212L4.13748 9.55734C3.76281 9.9107 3.54531 10.3976 3.54531 10.9133H4.73281ZM4.95199 10.4215L10.8301 4.88419L10.0159 4.01981L4.13773 9.5571L4.95199 10.4215Z" fill="#BCA37B"/>
</svg>
