<svg width="38" height="38" viewBox="0 0 38 38" fill="none" xmlns="http://www.w3.org/2000/svg">
<rect width="38" height="38" rx="19" fill="#242527"/>
<path d="M25.2071 13.7071C25.5976 13.3166 25.5976 12.6834 25.2071 12.2929C24.8166 11.9024 24.1834 11.9024 23.7929 12.2929L25.2071 13.7071ZM12.2929 23.7929C11.9024 24.1834 11.9024 24.8166 12.2929 25.2071C12.6834 25.5976 13.3166 25.5976 13.7071 25.2071L12.2929 23.7929ZM13.7071 12.2929C13.3166 11.9024 12.6834 11.9024 12.2929 12.2929C11.9024 12.6834 11.9024 13.3166 12.2929 13.7071L13.7071 12.2929ZM23.7929 25.2071C24.1834 25.5976 24.8166 25.5976 25.2071 25.2071C25.5977 24.8166 25.5977 24.1834 25.2071 23.7929L23.7929 25.2071ZM23.7929 12.2929L12.2929 23.7929L13.7071 25.2071L25.2071 13.7071L23.7929 12.2929ZM12.2929 13.7071L23.7929 25.2071L25.2071 23.7929L13.7071 12.2929L12.2929 13.7071Z" fill="#BCA37B"/>
</svg>
