<svg width="16" height="16" viewBox="0 0 16 16" fill="none" xmlns="http://www.w3.org/2000/svg">
<path d="M11.6869 6.35355C11.8821 6.15829 11.8821 5.84171 11.6869 5.64645C11.4916 5.45118 11.175 5.45118 10.9798 5.64645L11.6869 6.35355ZM6.66665 10.6667L6.3131 11.0202C6.50836 11.2155 6.82495 11.2155 7.02021 11.0202L6.66665 10.6667ZM5.02018 8.31311C4.82492 8.11785 4.50833 8.11785 4.31307 8.31311C4.11781 8.50838 4.11781 8.82496 4.31307 9.02022L5.02018 8.31311ZM10.9798 5.64645L6.3131 10.3131L7.02021 11.0202L11.6869 6.35355L10.9798 5.64645ZM4.31307 9.02022L6.3131 11.0202L7.02021 10.3131L5.02018 8.31311L4.31307 9.02022ZM13.5 8C13.5 11.0376 11.0376 13.5 8 13.5V14.5C11.5899 14.5 14.5 11.5899 14.5 8H13.5ZM8 13.5C4.96243 13.5 2.5 11.0376 2.5 8H1.5C1.5 11.5899 4.41015 14.5 8 14.5V13.5ZM2.5 8C2.5 4.96243 4.96243 2.5 8 2.5V1.5C4.41015 1.5 1.5 4.41015 1.5 8H2.5ZM8 2.5C11.0376 2.5 13.5 4.96243 13.5 8H14.5C14.5 4.41015 11.5899 1.5 8 1.5V2.5Z" fill="#001A72"/>
</svg>
