<svg width="16" height="16" viewBox="0 0 16 16" fill="none" xmlns="http://www.w3.org/2000/svg">
<path d="M3.25312 6.61487L1.27011 8.59779C0.456871 9.41099 0 10.5139 0 11.664C0 12.814 0.456871 13.9169 1.27011 14.7301C2.08334 15.5433 3.18632 16.0002 4.33641 16.0002C5.4865 16.0002 6.58948 15.5433 7.40272 14.7301L10.0448 12.0867C10.5352 11.5963 10.9008 10.9953 11.1109 10.3344C11.321 9.6734 11.3694 8.97169 11.2522 8.28812C11.135 7.60455 10.8555 6.95908 10.4371 6.40589C10.0188 5.85269 9.47387 5.40791 8.84807 5.10889L8.00109 5.95582C7.91511 6.04196 7.84032 6.13859 7.77851 6.24343C8.26202 6.38242 8.70088 6.64519 9.05171 7.00576C9.40254 7.36632 9.65318 7.8122 9.77887 8.29932C9.90456 8.78643 9.90094 9.29791 9.76837 9.7832C9.63579 10.2685 9.37885 10.7108 9.02296 11.0663L6.3823 13.7083C5.83989 14.2507 5.10422 14.5554 4.33714 14.5554C3.57005 14.5554 2.83438 14.2507 2.29197 13.7083C1.74956 13.1659 1.44483 12.4303 1.44483 11.6632C1.44483 10.8962 1.74956 10.1605 2.29197 9.61816L3.43813 8.4735C3.27642 7.86753 3.21394 7.23937 3.25312 6.61342V6.61487Z" fill="#BCA37B"/>
<path d="M5.95533 3.91202C5.46493 4.40246 5.09934 5.00339 4.88925 5.66435C4.67916 6.32532 4.6307 7.02703 4.74794 7.7106C4.86518 8.39417 5.14469 9.03963 5.56302 9.59283C5.98134 10.146 6.52628 10.5908 7.15208 10.8898L8.27222 9.76829C7.78217 9.63686 7.33535 9.37876 6.97666 9.01993C6.61797 8.66111 6.36005 8.2142 6.2288 7.72412C6.09756 7.23404 6.09763 6.71805 6.229 6.228C6.36036 5.73796 6.61841 5.29112 6.97719 4.93239L9.61784 2.29041C10.1603 1.74803 10.8959 1.44332 11.663 1.44332C12.4301 1.44332 13.1658 1.74803 13.7082 2.29041C14.2506 2.8328 14.5553 3.56844 14.5553 4.33549C14.5553 5.10254 14.2506 5.83817 13.7082 6.38056L12.562 7.52522C12.7239 8.13224 12.786 8.76093 12.747 9.38529L14.73 7.40237C15.5433 6.58917 16.0001 5.48624 16.0001 4.33621C16.0001 3.18617 15.5433 2.08324 14.73 1.27005C13.9168 0.456849 12.8138 0 11.6637 0C10.5136 0 9.41066 0.456849 8.59742 1.27005L5.95533 3.91202Z" fill="#BCA37B"/>
</svg>
