<svg width="14" height="15" viewBox="0 0 14 15" fill="none" xmlns="http://www.w3.org/2000/svg">
<path d="M4.89855 1.34369L5.05303 0.92103L5.05303 0.92103L4.89855 1.34369ZM1.6258 7.08199L1.21017 7.25446L1.21017 7.25446L1.6258 7.08199ZM2.125 8.5L2.56156 8.39086L2.56156 8.39086L2.125 8.5ZM2.32991 10.2816L2.77882 10.2503L2.77882 10.2503L2.32991 10.2816ZM4.91989 11.5214L5.35339 11.6421L5.35339 11.6421L4.91989 11.5214ZM9.08011 11.5214L8.6466 11.6421L8.6466 11.6421L9.08011 11.5214ZM11.6701 10.2816L12.119 10.313L12.119 10.313L11.6701 10.2816ZM11.875 8.5L11.4384 8.39086L11.4384 8.39086L11.875 8.5ZM12.3742 7.08199L11.9586 6.90952L11.9586 6.90952L12.3742 7.08199ZM9.10145 1.34369L8.94697 0.92103L8.94697 0.92103L9.10145 1.34369ZM3.25 1.45C3.87406 1.45 4.26837 1.59248 4.74407 1.76634L5.05303 0.92103C4.56289 0.741891 4.04235 0.55 3.25 0.55V1.45ZM1.45 4.375C1.45 3.48834 1.62873 2.73536 1.94575 2.22022C2.25143 1.72348 2.67886 1.45 3.25 1.45V0.55C2.32114 0.55 1.62357 1.02652 1.17925 1.74853C0.746265 2.45214 0.55 3.38666 0.55 4.375H1.45ZM2.04144 6.90952C1.72643 6.15039 1.45 5.48039 1.45 4.375H0.55C0.55 5.6674 0.886837 6.47528 1.21017 7.25446L2.04144 6.90952ZM2.56156 8.39086C2.41723 7.81352 2.2208 7.34175 2.04144 6.90952L1.21017 7.25446C1.3908 7.68975 1.56233 8.10471 1.68844 8.60914L2.56156 8.39086ZM2.77882 10.2503C2.73198 9.57933 2.6852 8.88539 2.56156 8.39086L1.68844 8.60914C1.7883 9.00861 1.83181 9.60828 1.881 10.313L2.77882 10.2503ZM3.625 13.3C3.51703 13.3 3.43307 13.2619 3.34305 13.1515C3.23949 13.0245 3.14179 12.8136 3.05967 12.507C2.89526 11.8933 2.83635 11.0745 2.77882 10.2503L1.881 10.313C1.93657 11.1091 1.9987 12.0245 2.19031 12.7399C2.2862 13.0978 2.42526 13.4502 2.64558 13.7203C2.87943 14.0071 3.20647 14.2 3.625 14.2V13.3ZM4.48639 11.4007C4.31995 11.9983 4.17554 12.5109 3.99818 12.8778C3.8095 13.2681 3.67858 13.3 3.625 13.3V14.2C4.24566 14.2 4.59956 13.7016 4.80845 13.2695C5.02866 12.8141 5.19458 12.2124 5.35339 11.6421L4.48639 11.4007ZM7 8.05C6.13963 8.05 5.59913 8.62022 5.25004 9.25836C4.90477 9.88953 4.68155 10.6999 4.48639 11.4007L5.35339 11.6421C5.55658 10.9126 5.75409 10.2122 6.03962 9.69029C6.32134 9.17531 6.62172 8.95 7 8.95V8.05ZM7 8.95C7.37827 8.95 7.67866 9.17531 7.96038 9.69029C8.24591 10.2122 8.44341 10.9126 8.6466 11.6421L9.51361 11.4007C9.31845 10.6999 9.09523 9.88953 8.74995 9.25836C8.40087 8.62022 7.86037 8.05 7 8.05V8.95ZM8.6466 11.6421C8.80541 12.2124 8.97134 12.8141 9.19155 13.2695C9.40044 13.7016 9.75434 14.2 10.375 14.2V13.3C10.3214 13.3 10.1905 13.2681 10.0018 12.8778C9.82445 12.5109 9.68005 11.9983 9.51361 11.4007L8.6466 11.6421ZM10.375 14.2C10.7935 14.2 11.1206 14.0071 11.3544 13.7203C11.5747 13.4502 11.7138 13.0978 11.8097 12.7399C12.0013 12.0245 12.0634 11.1091 12.119 10.313L11.2212 10.2503C11.1637 11.0745 11.1047 11.8933 10.9403 12.507C10.8582 12.8136 10.7605 13.0245 10.657 13.1515C10.5669 13.2619 10.483 13.3 10.375 13.3V14.2ZM12.119 10.313C12.1682 9.60828 12.2117 9.00861 12.3116 8.60914L11.4384 8.39086C11.3148 8.88539 11.268 9.57933 11.2212 10.2503L12.119 10.313ZM12.3116 8.60914C12.4377 8.10471 12.6092 7.68975 12.7898 7.25446L11.9586 6.90952C11.7792 7.34175 11.5828 7.81352 11.4384 8.39086L12.3116 8.60914ZM12.7898 7.25447C13.1132 6.47528 13.45 5.6674 13.45 4.375H12.55C12.55 5.48039 12.2736 6.15039 11.9586 6.90952L12.7898 7.25447ZM13.45 4.375C13.45 3.38666 13.2537 2.45214 12.8207 1.74853C12.3764 1.02652 11.6789 0.55 10.75 0.55V1.45C11.3211 1.45 11.7486 1.72348 12.0543 2.22022C12.3713 2.73536 12.55 3.48834 12.55 4.375H13.45ZM10.75 0.55C9.95765 0.55 9.43711 0.741891 8.94697 0.92103L9.25592 1.76634C9.73162 1.59248 10.1259 1.45 10.75 1.45V0.55ZM8.94697 0.92103C8.42315 1.11248 7.91045 1.3 7 1.3V2.2C8.06904 2.2 8.69991 1.96956 9.25592 1.76634L8.94697 0.92103ZM4.74407 1.76634C5.30009 1.96956 5.93096 2.2 7 2.2V1.3C6.08955 1.3 5.57685 1.11248 5.05303 0.92103L4.74407 1.76634Z" fill="#242527"/>
</svg>
