<svg width="34" height="34" viewBox="0 0 34 34" fill="none" xmlns="http://www.w3.org/2000/svg">
<path d="M20.0046 28.5052L20.7559 29.2565L20.0046 28.5052ZM18.6258 29.4265L18.2192 28.4449L18.6258 29.4265ZM15.3729 29.4265L14.9663 30.4081L15.3729 29.4265ZM13.9941 28.5052L13.2428 29.2565H13.2428L13.9941 28.5052ZM13.0729 27.1264L12.0912 27.533L13.0729 27.1264ZM13.8118 24.0833C13.8118 23.4965 13.3362 23.0208 12.7493 23.0208C12.1625 23.0208 11.6868 23.4965 11.6868 24.0833H13.8118ZM22.3118 24.0833C22.3118 23.4965 21.8362 23.0208 21.2493 23.0208C20.6625 23.0208 20.1868 23.4965 20.1868 24.0833H22.3118ZM28.3327 24.0833V25.1458C28.6852 25.1458 29.0148 24.9709 29.2125 24.679C29.4102 24.3871 29.4501 24.0161 29.3192 23.6887L28.3327 24.0833ZM5.66602 24.0833L4.71569 23.6082C4.55101 23.9375 4.5686 24.3287 4.7622 24.6419C4.95579 24.9552 5.29778 25.1458 5.66602 25.1458V24.0833ZM20.1868 25.5C20.1868 25.9186 20.1044 26.3331 19.9442 26.7198L21.9075 27.533C22.1744 26.8885 22.3118 26.1976 22.3118 25.5H20.1868ZM19.9442 26.7198C19.784 27.1065 19.5492 27.4579 19.2533 27.7539L20.7559 29.2565C21.2492 28.7632 21.6405 28.1775 21.9075 27.533L19.9442 26.7198ZM19.2533 27.7539C18.9573 28.0499 18.6059 28.2847 18.2192 28.4449L19.0324 30.4081C19.6769 30.1411 20.2625 29.7498 20.7559 29.2565L19.2533 27.7539ZM18.2192 28.4449C17.8324 28.6051 17.4179 28.6875 16.9993 28.6875V30.8125C17.697 30.8125 18.3878 30.6751 19.0324 30.4081L18.2192 28.4449ZM16.9993 28.6875C16.5808 28.6875 16.1663 28.6051 15.7795 28.4449L14.9663 30.4081C15.6109 30.6751 16.3017 30.8125 16.9993 30.8125V28.6875ZM15.7795 28.4449C15.3928 28.2847 15.0414 28.0499 14.7454 27.7539L13.2428 29.2565C13.7362 29.7498 14.3218 30.1411 14.9663 30.4081L15.7795 28.4449ZM14.7454 27.7539C14.4495 27.4579 14.2147 27.1065 14.0545 26.7198L12.0912 27.533C12.3582 28.1775 12.7495 28.7632 13.2428 29.2565L14.7454 27.7539ZM14.0545 26.7198C13.8943 26.3331 13.8118 25.9186 13.8118 25.5H11.6868C11.6868 26.1976 11.8243 26.8885 12.0912 27.533L14.0545 26.7198ZM13.8118 25.5V24.0833H11.6868V25.5H13.8118ZM22.3118 25.5V24.0833H20.1868V25.5H22.3118ZM24.4368 12.75C24.4368 15.0481 25.1903 18.0147 25.9005 20.3229C26.2611 21.495 26.6214 22.5306 26.8914 23.2733C27.0266 23.6449 27.1395 23.944 27.2189 24.1512C27.2586 24.2548 27.29 24.3354 27.3117 24.3907C27.3225 24.4183 27.3309 24.4396 27.3367 24.4542C27.3396 24.4615 27.3419 24.4672 27.3435 24.4712C27.3443 24.4732 27.3449 24.4747 27.3453 24.4758C27.3456 24.4764 27.3457 24.4769 27.3459 24.4772C27.346 24.4774 27.346 24.4776 27.3461 24.4777C27.3461 24.4778 27.3462 24.4779 28.3327 24.0833C29.3192 23.6887 29.3192 23.6888 29.3192 23.6889C29.3192 23.6888 29.3192 23.6888 29.3192 23.6888C29.3192 23.6887 29.3191 23.6885 29.319 23.6882C29.3188 23.6876 29.3184 23.6866 29.3178 23.6852C29.3166 23.6823 29.3148 23.6778 29.3124 23.6715C29.3074 23.6591 29.2999 23.6401 29.29 23.6148C29.2702 23.5643 29.2407 23.4886 29.203 23.3902C29.1275 23.1933 29.019 22.9059 28.8885 22.5471C28.6273 21.8288 28.2792 20.8279 27.9315 19.6979C27.2251 17.4019 26.5618 14.7018 26.5618 12.75H24.4368ZM5.66602 24.0833C6.61635 24.5585 6.61645 24.5583 6.61656 24.5581C6.61662 24.558 6.61674 24.5577 6.61685 24.5575C6.61706 24.5571 6.61731 24.5566 6.61761 24.556C6.6182 24.5548 6.61896 24.5532 6.61989 24.5514C6.62176 24.5476 6.62429 24.5425 6.62748 24.536C6.63386 24.523 6.64284 24.5047 6.65425 24.4811C6.67709 24.4339 6.70966 24.3658 6.75058 24.2781C6.8324 24.1028 6.94772 23.849 7.08532 23.5279C7.36029 22.8863 7.72553 21.973 8.09066 20.8777C8.81667 18.6996 9.56185 15.744 9.56185 12.75H7.43685C7.43685 15.4226 6.76536 18.1337 6.07471 20.2057C5.7315 21.2353 5.38841 22.0929 5.13213 22.6908C5.00411 22.9896 4.89806 23.2228 4.82494 23.3795C4.78839 23.4578 4.76009 23.5169 4.74142 23.5555C4.73208 23.5748 4.72515 23.589 4.72081 23.5978C4.71863 23.6022 4.71711 23.6053 4.71625 23.607C4.71582 23.6079 4.71555 23.6084 4.71546 23.6086C4.71541 23.6087 4.71541 23.6087 4.71544 23.6087C4.71546 23.6086 4.71552 23.6085 4.71553 23.6085C4.7156 23.6083 4.71569 23.6082 5.66602 24.0833ZM28.3327 23.0208H5.66602V25.1458H28.3327V23.0208ZM16.9993 3.1875C11.7829 3.1875 7.43685 7.53353 7.43685 12.75H9.56185C9.56185 8.70713 12.9565 5.3125 16.9993 5.3125V3.1875ZM26.5618 12.75C26.5618 7.53353 22.2158 3.1875 16.9993 3.1875V5.3125C21.0422 5.3125 24.4368 8.70713 24.4368 12.75H26.5618Z" fill="#E9CCA7"/>
</svg>
