<svg width="40" height="40" viewBox="0 0 40 40" fill="none" xmlns="http://www.w3.org/2000/svg">
<path d="M18.6706 11.9507C18.6706 11.3984 18.2229 10.9507 17.6706 10.9507C17.1183 10.9507 16.6706 11.3984 16.6706 11.9507H18.6706ZM16.6706 22.6082C16.6706 23.1605 17.1183 23.6082 17.6706 23.6082C18.2229 23.6082 18.6706 23.1605 18.6706 22.6082H16.6706ZM12.3418 16.2795C11.7895 16.2795 11.3418 16.7272 11.3418 17.2795C11.3418 17.8317 11.7895 18.2795 12.3418 18.2795V16.2795ZM22.9993 18.2795C23.5516 18.2795 23.9993 17.8317 23.9993 17.2795C23.9993 16.7272 23.5516 16.2795 22.9993 16.2795V18.2795ZM16.6706 11.9507V22.6082H18.6706V11.9507H16.6706ZM12.3418 18.2795H22.9993V16.2795H12.3418V18.2795Z" fill="white"/>
<path d="M32.4495 34.2172C32.9376 34.7054 33.7291 34.7054 34.2172 34.2172C34.7054 33.7291 34.7054 32.9376 34.2172 32.4495L32.4495 34.2172ZM27.2227 25.455C26.7346 24.9668 25.9431 24.9668 25.455 25.455C24.9668 25.9431 24.9668 26.7346 25.455 27.2227L27.2227 25.455ZM17.5 28.75C11.2868 28.75 6.25 23.7132 6.25 17.5H3.75C3.75 25.0939 9.90609 31.25 17.5 31.25V28.75ZM6.25 17.5C6.25 11.2868 11.2868 6.25 17.5 6.25V3.75C9.90609 3.75 3.75 9.90609 3.75 17.5H6.25ZM17.5 6.25C23.7132 6.25 28.75 11.2868 28.75 17.5H31.25C31.25 9.90609 25.0939 3.75 17.5 3.75V6.25ZM28.75 17.5C28.75 23.7132 23.7132 28.75 17.5 28.75V31.25C25.0939 31.25 31.25 25.0939 31.25 17.5H28.75ZM34.2172 32.4495L27.2227 25.455L25.455 27.2227L32.4495 34.2172L34.2172 32.4495Z" fill="white"/>
</svg>
