<svg width="1374" height="187" viewBox="0 0 1374 187" fill="none" xmlns="http://www.w3.org/2000/svg">
<g clip-path="url(#clip0_455_3025)">
<path d="M147.384 15.9218V61.9366C142.185 61.1566 137.245 60.7667 132.566 60.7667C98.5096 60.7667 81.4815 79.3546 81.4815 116.53V207H36.2467V17.0917H80.3116V47.5082C84.7311 37.3694 91.8803 29.4403 101.759 23.7209C111.638 17.7416 122.817 14.7519 135.295 14.7519C139.455 14.7519 143.484 15.1419 147.384 15.9218ZM214.828 91.1832H308.027C307.507 79.2246 303.218 69.2157 295.159 61.1566C287.36 53.0976 276.051 49.068 261.233 49.068C247.714 49.068 236.795 53.3575 228.476 61.9366C220.157 70.2556 215.608 80.0045 214.828 91.1832ZM313.097 140.708L351.312 152.796C345.853 170.214 335.584 184.643 320.506 196.081C305.688 207.26 287.36 212.849 265.522 212.849C238.485 212.849 215.478 203.62 196.5 185.162C177.782 166.705 168.423 142.007 168.423 111.071C168.423 81.9543 177.522 58.037 195.72 39.3191C214.178 20.6013 235.886 11.2423 260.843 11.2423C289.959 11.2423 312.707 20.2113 329.085 38.1493C345.463 55.8273 353.652 79.7445 353.652 109.901C353.652 117.96 353.262 122.77 352.482 124.329H213.658C214.178 138.628 219.377 150.456 229.256 159.815C239.395 169.174 251.484 173.854 265.522 173.854C289.959 173.854 305.818 162.805 313.097 140.708ZM479.55 52.9676C464.992 52.9676 452.643 58.297 442.504 68.9558C432.365 79.3546 427.296 93.6529 427.296 111.851C427.296 130.309 432.365 144.867 442.504 155.526C452.903 166.185 465.511 171.514 480.33 171.514C493.588 171.514 504.117 168.004 511.916 160.985C519.975 153.706 525.305 145.517 527.904 136.418L567.68 150.846C562.48 167.744 552.342 182.303 537.263 194.521C522.445 206.74 503.467 212.849 480.33 212.849C452.513 212.849 429.116 203.23 410.138 183.993C391.42 164.755 382.061 140.708 382.061 111.851C382.061 82.7342 391.29 58.6869 409.748 39.7091C428.466 20.7313 451.603 11.2423 479.16 11.2423C502.817 11.2423 522.055 17.3516 536.873 29.5703C551.952 41.7889 561.7 56.4772 566.12 73.6352L525.565 88.4535C522.965 78.5747 517.895 70.2556 510.356 63.4964C503.077 56.4772 492.808 52.9676 479.55 52.9676ZM651.572 156.306C661.971 166.965 674.579 172.294 689.398 172.294C704.216 172.294 716.695 166.965 726.833 156.306C737.232 145.647 742.432 130.829 742.432 111.851C742.432 93.133 737.232 78.5747 726.833 68.1758C716.695 57.5171 704.216 52.1877 689.398 52.1877C674.579 52.1877 661.971 57.5171 651.572 68.1758C641.433 78.5747 636.364 93.133 636.364 111.851C636.364 130.569 641.433 145.387 651.572 156.306ZM689.398 11.2423C717.994 11.2423 741.522 20.7313 759.98 39.7091C778.698 58.6869 788.056 82.7342 788.056 111.851C788.056 140.968 778.698 165.145 759.98 184.383C741.522 203.36 717.994 212.849 689.398 212.849C661.061 212.849 637.534 203.36 618.816 184.383C600.358 165.145 591.129 140.968 591.129 111.851C591.129 82.7342 600.358 58.6869 618.816 39.7091C637.534 20.7313 661.061 11.2423 689.398 11.2423ZM876.616 207H831.771V17.0917H875.056V41.2689C880.256 31.91 888.055 24.6308 898.453 19.4314C909.112 14.232 920.031 11.6323 931.21 11.6323C943.948 11.6323 955.387 14.492 965.526 20.2113C975.665 25.9307 983.204 34.2497 988.143 45.1685C1001.4 22.811 1021.94 11.6323 1049.76 11.6323C1068.47 11.6323 1084.33 17.7416 1097.33 29.9602C1110.33 42.1788 1116.83 60.1168 1116.83 83.7741V207H1073.15V91.1832C1073.15 79.4846 1070.03 70.1256 1063.79 63.1064C1057.82 55.8273 1048.72 52.1877 1036.5 52.1877C1024.8 52.1877 1015.31 56.2172 1008.03 64.2763C1000.75 72.3354 997.112 82.3442 997.112 94.3029V207H952.657V91.1832C952.657 79.4846 949.538 70.1256 943.298 63.1064C937.319 55.8273 928.22 52.1877 916.001 52.1877C904.043 52.1877 894.424 56.2172 887.145 64.2763C880.126 72.0754 876.616 82.0843 876.616 94.3029V207ZM1203.81 91.1832H1297.01C1296.49 79.2246 1292.2 69.2157 1284.14 61.1566C1276.34 53.0976 1265.03 49.068 1250.21 49.068C1236.69 49.068 1225.77 53.3575 1217.46 61.9366C1209.14 70.2556 1204.59 80.0045 1203.81 91.1832ZM1302.08 140.708L1340.29 152.796C1334.83 170.214 1324.56 184.643 1309.48 196.081C1294.67 207.26 1276.34 212.849 1254.5 212.849C1227.46 212.849 1204.46 203.62 1185.48 185.162C1166.76 166.705 1157.4 142.007 1157.4 111.071C1157.4 81.9543 1166.5 58.037 1184.7 39.3191C1203.16 20.6013 1224.86 11.2423 1249.82 11.2423C1278.94 11.2423 1301.69 20.2113 1318.06 38.1493C1334.44 55.8273 1342.63 79.7445 1342.63 109.901C1342.63 117.96 1342.24 122.77 1341.46 124.329H1202.64C1203.16 138.628 1208.36 150.456 1218.24 159.815C1228.37 169.174 1240.46 173.854 1254.5 173.854C1278.94 173.854 1294.8 162.805 1302.08 140.708Z" fill="white" fill-opacity="0.1"/>
</g>
<defs>
<clipPath id="clip0_455_3025">
<rect width="1374" height="187" fill="white"/>
</clipPath>
</defs>
</svg>
