<svg width="260" height="260" viewBox="0 0 260 260" fill="none" xmlns="http://www.w3.org/2000/svg">
<rect width="260" height="260" fill="url(#paint0_linear_1101_3023)"/>
<path d="M121.25 72.5312C119.541 72.5312 118.156 73.9164 118.156 75.625C118.156 77.3336 119.541 78.7188 121.25 78.7188V72.5312ZM163.531 121C163.531 122.709 164.916 124.094 166.625 124.094C168.334 124.094 169.719 122.709 169.719 121H163.531ZM94.5626 65.1874C93.3544 63.9792 91.3956 63.9792 90.1874 65.1874C88.9792 66.3956 88.9792 68.3544 90.1874 69.5626L94.5626 65.1874ZM164.437 143.813C165.646 145.021 167.604 145.021 168.813 143.813C170.021 142.604 170.021 140.646 168.813 139.437L164.437 143.813ZM127.75 123.996C129.448 124.187 130.979 122.966 131.171 121.268C131.363 119.57 130.142 118.039 128.444 117.847L127.75 123.996ZM120.283 109.725C120.083 108.028 118.546 106.814 116.849 107.014C115.152 107.214 113.938 108.751 114.138 110.448L120.283 109.725ZM95.4688 92.125C95.4688 90.4164 94.0836 89.0312 92.375 89.0312C90.6664 89.0312 89.2812 90.4164 89.2812 92.125H95.4688ZM137.75 136.469C139.459 136.469 140.844 135.084 140.844 133.375C140.844 131.666 139.459 130.281 137.75 130.281V136.469ZM148.062 86.9688H158.375V80.7812H148.062V86.9688ZM140.844 79.75C140.844 83.7368 144.076 86.9688 148.062 86.9688V80.7812C147.493 80.7812 147.031 80.3195 147.031 79.75H140.844ZM147.031 79.75C147.031 75.7632 143.799 72.5312 139.812 72.5312V78.7188C140.382 78.7188 140.844 79.1805 140.844 79.75H147.031ZM169.719 92.125C169.719 85.86 164.64 80.7812 158.375 80.7812V86.9688C161.223 86.9688 163.531 89.2773 163.531 92.125H169.719ZM121.25 78.7188H139.812V72.5312H121.25V78.7188ZM163.531 92.125V121H169.719V92.125H163.531ZM90.1874 69.5626L164.437 143.813L168.813 139.437L94.5626 65.1874L90.1874 69.5626ZM128.444 117.847C124.179 117.366 120.784 113.984 120.283 109.725L114.138 110.448C114.975 117.561 120.627 123.192 127.75 123.996L128.444 117.847ZM95.4688 125.125V92.125H89.2812V125.125H95.4688ZM100.625 130.281C97.7773 130.281 95.4688 127.973 95.4688 125.125H89.2812C89.2812 131.39 94.36 136.469 100.625 136.469V130.281ZM137.75 130.281H100.625V136.469H137.75V130.281Z" fill="#BCA37B"/>
<path opacity="0.5" d="M80.3132 175.02C81.0546 175.263 81.6426 175.672 82.0773 176.248C82.5119 176.81 82.7292 177.513 82.7292 178.357C82.7292 179.52 82.2818 180.421 81.387 181.06C80.4921 181.687 79.1882 182 77.4753 182H70.8024V168.578H77.0918C78.6769 168.578 79.8977 168.891 80.7542 169.517C81.6107 170.131 82.0389 170.981 82.0389 172.067C82.0389 172.732 81.8855 173.32 81.5787 173.832C81.2719 174.343 80.8501 174.739 80.3132 175.02ZM73.2952 170.533V174.234H76.8233C77.6926 174.234 78.3573 174.081 78.8175 173.774C79.2905 173.454 79.527 172.994 79.527 172.393C79.527 171.78 79.2905 171.32 78.8175 171.013C78.3573 170.693 77.6926 170.533 76.8233 170.533H73.2952ZM77.3219 180.044C79.2522 180.044 80.2173 179.399 80.2173 178.108C80.2173 176.816 79.2522 176.171 77.3219 176.171H73.2952V180.044H77.3219ZM87.4413 173.256C88.1316 172.182 89.346 171.646 91.0845 171.646V173.927C90.88 173.889 90.6946 173.87 90.5284 173.87C89.5953 173.87 88.8666 174.145 88.3425 174.694C87.8184 175.231 87.5563 176.011 87.5563 177.034V182H85.1595V171.761H87.4413V173.256ZM96.9733 171.646C98.4817 171.646 99.6322 172.01 100.425 172.739C101.23 173.454 101.633 174.541 101.633 175.998V182H99.3701V180.754C99.0761 181.201 98.6543 181.546 98.1046 181.789C97.5677 182.019 96.9158 182.134 96.1488 182.134C95.3818 182.134 94.7106 182.006 94.1354 181.751C93.5602 181.482 93.1127 181.118 92.7932 180.658C92.4864 180.185 92.333 179.654 92.333 179.066C92.333 178.146 92.6717 177.411 93.3492 176.861C94.0395 176.299 95.1197 176.017 96.5898 176.017H99.2359V175.864C99.2359 175.148 99.0186 174.599 98.584 174.215C98.1621 173.832 97.5294 173.64 96.6857 173.64C96.1104 173.64 95.5416 173.729 94.9791 173.908C94.4294 174.087 93.9628 174.336 93.5793 174.656L92.6398 172.911C93.1767 172.502 93.8222 172.189 94.5764 171.972C95.3306 171.754 96.1296 171.646 96.9733 171.646ZM96.6473 180.389C97.2481 180.389 97.7786 180.255 98.2388 179.987C98.7118 179.705 99.0442 179.309 99.2359 178.798V177.609H96.7624C95.3818 177.609 94.6915 178.063 94.6915 178.97C94.6915 179.405 94.864 179.75 95.2092 180.006C95.5543 180.261 96.0337 180.389 96.6473 180.389ZM108.889 177.609L107.106 179.296V182H104.709V167.772H107.106V176.363L112.072 171.761H114.948L110.672 176.056L115.351 182H112.436L108.889 177.609ZM130.194 180.083V182H121.355V180.485L126.973 173.678H121.47V171.761H130.041V173.275L124.404 180.083H130.194ZM142.282 167.772V182H139.981V180.677C139.585 181.163 139.093 181.527 138.505 181.77C137.93 182.013 137.291 182.134 136.587 182.134C135.603 182.134 134.715 181.917 133.922 181.482C133.142 181.048 132.529 180.434 132.081 179.641C131.634 178.836 131.41 177.916 131.41 176.88C131.41 175.845 131.634 174.931 132.081 174.138C132.529 173.346 133.142 172.732 133.922 172.298C134.715 171.863 135.603 171.646 136.587 171.646C137.265 171.646 137.885 171.761 138.447 171.991C139.01 172.221 139.489 172.566 139.886 173.026V167.772H142.282ZM136.875 180.083C137.45 180.083 137.968 179.955 138.428 179.699C138.888 179.431 139.253 179.053 139.521 178.568C139.79 178.082 139.924 177.519 139.924 176.88C139.924 176.241 139.79 175.679 139.521 175.193C139.253 174.707 138.888 174.336 138.428 174.081C137.968 173.812 137.45 173.678 136.875 173.678C136.3 173.678 135.782 173.812 135.322 174.081C134.862 174.336 134.497 174.707 134.229 175.193C133.961 175.679 133.826 176.241 133.826 176.88C133.826 177.519 133.961 178.082 134.229 178.568C134.497 179.053 134.862 179.431 135.322 179.699C135.782 179.955 136.3 180.083 136.875 180.083ZM144.363 185.854C143.353 185.854 142.586 185.656 142.062 185.26L142.753 183.476C143.111 183.745 143.577 183.879 144.152 183.879C144.6 183.879 144.939 183.739 145.169 183.457C145.412 183.189 145.533 182.786 145.533 182.249V171.761H147.93V182.192C147.93 183.329 147.617 184.224 146.99 184.876C146.364 185.528 145.488 185.854 144.363 185.854ZM146.722 170.073C146.287 170.073 145.923 169.939 145.629 169.671C145.335 169.389 145.188 169.044 145.188 168.635C145.188 168.226 145.335 167.887 145.629 167.619C145.923 167.338 146.287 167.197 146.722 167.197C147.156 167.197 147.521 167.331 147.815 167.6C148.109 167.855 148.256 168.181 148.256 168.578C148.256 168.999 148.109 169.357 147.815 169.651C147.534 169.933 147.169 170.073 146.722 170.073ZM160.699 176.938C160.699 177.104 160.686 177.341 160.66 177.647H152.626C152.767 178.402 153.131 179.002 153.719 179.45C154.32 179.884 155.061 180.102 155.943 180.102C157.068 180.102 157.995 179.731 158.724 178.99L160.009 180.466C159.791 180.722 159.542 180.952 159.261 181.156C158.468 181.783 157.912 182.32 157.593 182.767C157.273 183.227 157.113 183.655 157.113 184.052C157.113 184.384 157.215 184.633 157.42 184.8C157.624 184.978 157.899 185.068 158.244 185.068C158.449 185.068 158.654 185.036 158.858 184.972C159.075 184.921 159.261 184.851 159.414 184.761L159.817 185.931C159.574 186.071 159.286 186.18 158.954 186.257C158.634 186.334 158.308 186.372 157.976 186.372C157.209 186.372 156.602 186.18 156.154 185.797C155.72 185.413 155.502 184.895 155.502 184.243C155.502 183.886 155.579 183.521 155.733 183.15C155.886 182.78 156.11 182.435 156.404 182.115C156.289 182.128 156.116 182.134 155.886 182.134C154.761 182.134 153.77 181.911 152.914 181.463C152.057 181.016 151.393 180.396 150.92 179.603C150.459 178.798 150.229 177.89 150.229 176.88C150.229 175.883 150.453 174.988 150.9 174.196C151.361 173.39 151.993 172.764 152.799 172.317C153.604 171.869 154.512 171.646 155.522 171.646C156.519 171.646 157.407 171.869 158.187 172.317C158.979 172.751 159.593 173.371 160.028 174.177C160.475 174.969 160.699 175.89 160.699 176.938ZM155.522 173.563C154.755 173.563 154.103 173.793 153.566 174.253C153.042 174.701 152.722 175.302 152.607 176.056H158.417C158.315 175.314 158.002 174.714 157.477 174.253C156.953 173.793 156.301 173.563 155.522 173.563ZM167.699 182.134C166.638 182.134 165.686 181.911 164.842 181.463C163.998 181.016 163.34 180.396 162.867 179.603C162.394 178.798 162.157 177.89 162.157 176.88C162.157 175.87 162.394 174.969 162.867 174.177C163.34 173.384 163.992 172.764 164.823 172.317C165.666 171.869 166.625 171.646 167.699 171.646C168.709 171.646 169.591 171.85 170.345 172.259C171.112 172.668 171.687 173.256 172.071 174.023L170.23 175.097C169.936 174.624 169.565 174.273 169.118 174.042C168.683 173.8 168.204 173.678 167.68 173.678C166.785 173.678 166.044 173.972 165.456 174.56C164.868 175.135 164.574 175.909 164.574 176.88C164.574 177.852 164.861 178.632 165.436 179.22C166.024 179.795 166.772 180.083 167.68 180.083C168.204 180.083 168.683 179.967 169.118 179.737C169.565 179.494 169.936 179.137 170.23 178.664L172.071 179.737C171.675 180.504 171.093 181.099 170.326 181.521C169.572 181.93 168.696 182.134 167.699 182.134ZM174.143 171.761H176.54V182H174.143V171.761ZM175.351 170.073C174.916 170.073 174.552 169.939 174.258 169.671C173.964 169.389 173.817 169.044 173.817 168.635C173.817 168.226 173.964 167.887 174.258 167.619C174.552 167.338 174.916 167.197 175.351 167.197C175.785 167.197 176.15 167.331 176.444 167.6C176.738 167.855 176.885 168.181 176.885 168.578C176.885 168.999 176.738 169.357 176.444 169.651C176.163 169.933 175.798 170.073 175.351 170.073ZM183.597 171.646C185.106 171.646 186.256 172.01 187.049 172.739C187.854 173.454 188.257 174.541 188.257 175.998V182H185.994V180.754C185.7 181.201 185.278 181.546 184.729 181.789C184.192 182.019 183.54 182.134 182.773 182.134C182.006 182.134 181.335 182.006 180.759 181.751C180.184 181.482 179.737 181.118 179.417 180.658C179.11 180.185 178.957 179.654 178.957 179.066C178.957 178.146 179.296 177.411 179.973 176.861C180.663 176.299 181.744 176.017 183.214 176.017H185.86V175.864C185.86 175.148 185.643 174.599 185.208 174.215C184.786 173.832 184.153 173.64 183.31 173.64C182.734 173.64 182.166 173.729 181.603 173.908C181.053 174.087 180.587 174.336 180.203 174.656L179.264 172.911C179.801 172.502 180.446 172.189 181.2 171.972C181.955 171.754 182.754 171.646 183.597 171.646ZM183.271 180.389C183.872 180.389 184.403 180.255 184.863 179.987C185.336 179.705 185.668 179.309 185.86 178.798V177.609H183.386C182.006 177.609 181.315 178.063 181.315 178.97C181.315 179.405 181.488 179.75 181.833 180.006C182.178 180.261 182.658 180.389 183.271 180.389Z" fill="black"/>
<defs>
<linearGradient id="paint0_linear_1101_3023" x1="-50" y1="-38" x2="308" y2="310" gradientUnits="userSpaceOnUse">
<stop stop-color="#E5E3E0" stop-opacity="0.42"/>
<stop offset="1" stop-color="white"/>
</linearGradient>
</defs>
</svg>
