<svg width="79" height="75" viewBox="0 0 79 75" fill="none" xmlns="http://www.w3.org/2000/svg">
<rect width="79" height="75" fill="#E9CCA7"/>
<rect x="22" y="20" width="36" height="36" rx="18" fill="white" fill-opacity="0.9"/>
<path d="M33.334 36.7882C32.6647 36.7882 32.1222 37.3307 32.1222 38C32.1222 38.6692 32.6647 39.2117 33.334 39.2117V36.7882ZM46.6673 39.2117C47.3366 39.2117 47.8791 38.6692 47.8791 38C47.8791 37.3307 47.3366 36.7882 46.6673 36.7882V39.2117ZM41.2124 31.3333C41.2124 30.6641 40.6699 30.1215 40.0007 30.1215C39.3314 30.1215 38.7889 30.6641 38.7889 31.3333H41.2124ZM38.7889 44.6666C38.7889 45.3359 39.3314 45.8784 40.0007 45.8784C40.6699 45.8784 41.2124 45.3359 41.2124 44.6666H38.7889ZM33.334 39.2117H46.6673V36.7882H33.334V39.2117ZM38.7889 31.3333V44.6666H41.2124V31.3333H38.7889Z" fill="#E9CCA7"/>
</svg>
