<svg width="34" height="34" viewBox="0 0 34 34" fill="none" xmlns="http://www.w3.org/2000/svg">
<path d="M16.875 28.125L16.1158 28.8571C16.3146 29.0632 16.5886 29.1797 16.875 29.1797C17.1614 29.1797 17.4354 29.0632 17.6342 28.8571L16.875 28.125ZM6.09103 16.9416L5.33182 17.6737L5.33182 17.6737L6.09103 16.9416ZM27.659 16.9416L26.8998 16.2095L26.8998 16.2095L27.659 16.9416ZM15.1312 7.56663L14.372 8.29872L14.372 8.29872L15.1312 7.56663ZM16.875 9.375L16.1158 10.1071C16.3146 10.3132 16.5886 10.4297 16.875 10.4297C17.1614 10.4297 17.4354 10.3132 17.6342 10.1071L16.875 9.375ZM18.6188 7.56663L17.8596 6.83453L17.8596 6.83453L18.6188 7.56663ZM17.6342 27.3929L6.85024 16.2095L5.33182 17.6737L16.1158 28.8571L17.6342 27.3929ZM26.8998 16.2095L16.1158 27.3929L17.6342 28.8571L28.4182 17.6737L26.8998 16.2095ZM14.372 8.29872L16.1158 10.1071L17.6342 8.6429L15.8904 6.83453L14.372 8.29872ZM17.6342 10.1071L19.378 8.29872L17.8596 6.83453L16.1158 8.6429L17.6342 10.1071ZM23.1389 4.57031C21.1512 4.57031 19.253 5.38953 17.8596 6.83453L19.378 8.29872C20.3822 7.25732 21.7359 6.67969 23.1389 6.67969V4.57031ZM28.4766 12.2541C28.4766 13.7447 27.9052 15.1668 26.8998 16.2095L28.4182 17.6737C29.8103 16.23 30.5859 14.2799 30.5859 12.2541H28.4766ZM30.5859 12.2541C30.5859 8.04695 27.2876 4.57031 23.1389 4.57031V6.67969C26.051 6.67969 28.4766 9.13897 28.4766 12.2541H30.5859ZM10.6111 6.67969C12.0141 6.67969 13.3678 7.25732 14.372 8.29872L15.8904 6.83453C14.497 5.38953 12.5988 4.57031 10.6111 4.57031V6.67969ZM5.27344 12.2541C5.27344 9.13897 7.69902 6.67969 10.6111 6.67969V4.57031C6.4624 4.57031 3.16406 8.04696 3.16406 12.2541H5.27344ZM6.85024 16.2095C5.84477 15.1668 5.27344 13.7447 5.27344 12.2541H3.16406C3.16406 14.2799 3.93969 16.23 5.33182 17.6737L6.85024 16.2095Z" fill="#242527" fill-opacity="0.8"/>
</svg>
