<svg width="108" height="108" viewBox="0 0 108 108" fill="none" xmlns="http://www.w3.org/2000/svg">
<path d="M18.1212 82.4806L14.7915 83.0317L14.7915 83.0317L18.1212 82.4806ZM46.2331 64.5723L48.1053 61.7641L48.1053 61.7641L46.2331 64.5723ZM48.5242 66.0997L46.6521 68.9078L46.6521 68.9078L48.5242 66.0997ZM59.1388 65.639L61.2471 68.2745L61.2471 68.2745L59.1388 65.639ZM71.0555 56.1057L68.9471 53.4702L68.9471 53.4702L71.0555 56.1057ZM81.5527 55.5679L79.7233 58.4041L79.7233 58.4041L81.5527 55.5679ZM35.3143 65.2875L33.0919 62.7476C33.0355 62.7969 32.9808 62.8481 32.9278 62.901L35.3143 65.2875ZM82.53 56.3858L80.1435 58.7722L80.1436 58.7723L82.53 56.3858ZM27 21.375H81V14.625H27V21.375ZM81 86.625H27V93.375H81V86.625ZM21.375 81V27H14.625V81H21.375ZM86.625 81C86.625 84.1066 84.1066 86.625 81 86.625V93.375C87.8345 93.375 93.375 87.8345 93.375 81H86.625ZM81 21.375C84.1066 21.375 86.625 23.8934 86.625 27H93.375C93.375 20.1655 87.8345 14.625 81 14.625V21.375ZM27 14.625C20.1655 14.625 14.625 20.1655 14.625 27H21.375C21.375 23.8934 23.8934 21.375 27 21.375V14.625ZM27 86.625C24.2119 86.625 21.8918 84.5932 21.4509 81.9295L14.7915 83.0317C15.7628 88.9002 20.8556 93.375 27 93.375V86.625ZM21.4509 81.9295C21.4012 81.6292 21.375 81.3189 21.375 81H14.625C14.625 81.6897 14.6817 82.3686 14.7915 83.0317L21.4509 81.9295ZM86.625 27V63.8555H93.375V27H86.625ZM86.625 63.8555V81H93.375V63.8555H86.625ZM46.125 40.5C46.125 43.6066 43.6066 46.125 40.5 46.125V52.875C47.3345 52.875 52.875 47.3345 52.875 40.5H46.125ZM40.5 46.125C37.3934 46.125 34.875 43.6066 34.875 40.5H28.125C28.125 47.3345 33.6655 52.875 40.5 52.875V46.125ZM34.875 40.5C34.875 37.3934 37.3934 34.875 40.5 34.875V28.125C33.6655 28.125 28.125 33.6655 28.125 40.5H34.875ZM40.5 34.875C43.6066 34.875 46.125 37.3934 46.125 40.5H52.875C52.875 33.6655 47.3345 28.125 40.5 28.125V34.875ZM44.361 67.3804L46.6521 68.9078L50.3963 63.2915L48.1053 61.7641L44.361 67.3804ZM61.2471 68.2745L73.1638 58.7411L68.9471 53.4702L57.0304 63.0036L61.2471 68.2745ZM73.1638 58.7411C75.0617 57.2228 77.7064 57.1032 79.7233 58.4041L83.3821 52.7317C78.9408 49.867 73.124 50.1287 68.9471 53.4702L73.1638 58.7411ZM46.6521 68.9078C51.1361 71.8971 57.039 71.641 61.2471 68.2745L57.0304 63.0036C55.1177 64.5338 52.4345 64.6503 50.3963 63.2915L46.6521 68.9078ZM37.5368 67.8275C39.4493 66.154 42.2465 65.9707 44.361 67.3804L48.1053 61.7641C43.4532 58.6628 37.2995 59.0659 33.0919 62.7476L37.5368 67.8275ZM32.9278 62.901L15.7347 80.0941L20.5077 84.8671L37.7008 67.674L32.9278 62.901ZM80.1436 58.7723L87.6135 66.2421L92.3865 61.469L84.9165 53.9992L80.1436 58.7723ZM79.7233 58.4041C79.7919 58.4483 79.9165 58.5452 80.1435 58.7722L84.9165 53.9993C84.5413 53.6241 84.0292 53.1491 83.3821 52.7317L79.7233 58.4041Z" fill="#E9CCA7"/>
</svg>
