<svg width="17" height="16" viewBox="0 0 17 16" fill="none" xmlns="http://www.w3.org/2000/svg">
<path d="M4.5 15.2515L4.5 15.9077H4.5L4.5 15.2515ZM12.6903 15.2514V14.5952H12.6903L12.6903 15.2514ZM14.4064 13.9318L13.7645 13.795L14.4064 13.9318ZM15.4564 9.00712L16.0982 9.14396L15.4564 9.00712ZM9.75 7.04361L9.21508 6.66344C9.07284 6.86359 9.05422 7.1264 9.16684 7.34459C9.27946 7.56279 9.50446 7.69986 9.75 7.69986V7.04361ZM11.8725 4.05708L12.4075 4.43724V4.43724L11.8725 4.05708ZM10.8409 1.55394L10.6911 2.19286L10.6911 2.19286L10.8409 1.55394ZM10.7993 1.54418L10.9491 0.905268L10.9491 0.905268L10.7993 1.54418ZM1 7.04361L1 6.38736C0.825954 6.38736 0.659034 6.4565 0.535962 6.57957C0.412891 6.70264 0.34375 6.86956 0.34375 7.04361H1ZM1 15.2514H0.34375C0.34375 15.6139 0.637561 15.9077 0.999997 15.9077L1 15.2514ZM9.04613 2.06842L8.56167 1.62574L8.56167 1.62574L9.04613 2.06842ZM3.84375 7.04362V15.2515H5.15625V7.04362H3.84375ZM4.5 15.9077L12.6903 15.9077L12.6903 14.5952L4.5 14.5952L4.5 15.9077ZM15.0482 14.0687L16.0982 9.14396L14.8145 8.87027L13.7645 13.795L15.0482 14.0687ZM13.7403 6.38736H9.75V7.69986H13.7403V6.38736ZM10.2849 7.42378L12.4075 4.43724L11.3376 3.67691L9.21508 6.66344L10.2849 7.42378ZM10.9907 0.915029L10.9491 0.905268L10.6494 2.1831L10.6911 2.19286L10.9907 0.915029ZM4.5 6.38737L1 6.38736L0.999997 7.69986L4.5 7.69987L4.5 6.38737ZM0.34375 7.04361V15.2514H1.65625V7.04361H0.34375ZM0.999997 15.9077L4.5 15.9077L4.5 14.5952L1 14.5952L0.999997 15.9077ZM10.9491 0.905268C10.0841 0.70242 9.15978 0.97118 8.56167 1.62574L9.53059 2.5111C9.79523 2.22148 10.2283 2.08434 10.6494 2.1831L10.9491 0.905268ZM12.4075 4.43724C13.3755 3.07514 12.573 1.28608 10.9907 0.915028L10.6911 2.19286C11.4569 2.37246 11.7121 3.14994 11.3376 3.67691L12.4075 4.43724ZM16.0982 9.14396C16.4126 7.66911 15.2087 6.38736 13.7403 6.38736V7.69986C14.4806 7.69986 14.9332 8.31354 14.8145 8.87027L16.0982 9.14396ZM12.6903 15.9077C13.8059 15.9077 14.8143 15.1658 15.0482 14.0687L13.7645 13.795C13.6712 14.2325 13.2432 14.5952 12.6903 14.5952V15.9077ZM8.56167 1.62574L4.01554 6.60095L4.98446 7.4863L9.53059 2.5111L8.56167 1.62574Z" fill="white"/>
</svg>
