<svg width="48" height="48" viewBox="0 0 48 48" fill="none" xmlns="http://www.w3.org/2000/svg">
<path d="M16 14.5C15.1716 14.5 14.5 15.1716 14.5 16C14.5 16.8284 15.1716 17.5 16 17.5V14.5ZM38 17.5C38.8284 17.5 39.5 16.8284 39.5 16C39.5 15.1716 38.8284 14.5 38 14.5V17.5ZM16 22.5C15.1716 22.5 14.5 23.1716 14.5 24C14.5 24.8284 15.1716 25.5 16 25.5V22.5ZM38 25.5C38.8284 25.5 39.5 24.8284 39.5 24C39.5 23.1716 38.8284 22.5 38 22.5V25.5ZM16 30.5C15.1716 30.5 14.5 31.1716 14.5 32C14.5 32.8284 15.1716 33.5 16 33.5V30.5ZM38 33.5C38.8284 33.5 39.5 32.8284 39.5 32C39.5 31.1716 38.8284 30.5 38 30.5V33.5ZM11.5 16C11.5 15.1716 10.8284 14.5 10 14.5C9.17157 14.5 8.5 15.1716 8.5 16H11.5ZM8.5 16.02C8.5 16.8484 9.17157 17.52 10 17.52C10.8284 17.52 11.5 16.8484 11.5 16.02H8.5ZM11.5 24C11.5 23.1716 10.8284 22.5 10 22.5C9.17157 22.5 8.5 23.1716 8.5 24H11.5ZM8.5 24.02C8.5 24.8484 9.17157 25.52 10 25.52C10.8284 25.52 11.5 24.8484 11.5 24.02H8.5ZM11.5 32C11.5 31.1716 10.8284 30.5 10 30.5C9.17157 30.5 8.5 31.1716 8.5 32H11.5ZM8.5 32.02C8.5 32.8484 9.17157 33.52 10 33.52C10.8284 33.52 11.5 32.8484 11.5 32.02H8.5ZM16 17.5H38V14.5H16V17.5ZM16 25.5H38V22.5H16V25.5ZM16 33.5H38V30.5H16V33.5ZM8.5 16V16.02H11.5V16H8.5ZM8.5 24V24.02H11.5V24H8.5ZM8.5 32V32.02H11.5V32H8.5Z" fill="#E9CCA7"/>
</svg>
