<svg width="20" height="22" viewBox="0 0 20 22" fill="none" xmlns="http://www.w3.org/2000/svg">
<path d="M10 20L9.69071 20.6833C9.8873 20.7722 10.1127 20.7722 10.3093 20.6833L10 20ZM12.25 10C12.25 11.2426 11.2426 12.25 10 12.25V13.75C12.0711 13.75 13.75 12.0711 13.75 10H12.25ZM10 12.25C8.75736 12.25 7.75 11.2426 7.75 10H6.25C6.25 12.0711 7.92893 13.75 10 13.75V12.25ZM7.75 10C7.75 8.75736 8.75736 7.75 10 7.75V6.25C7.92893 6.25 6.25 7.92893 6.25 10H7.75ZM10 7.75C11.2426 7.75 12.25 8.75736 12.25 10H13.75C13.75 7.92893 12.0711 6.25 10 6.25V7.75ZM17.25 10C17.25 13.982 13.9996 17.3663 9.69071 19.3167L10.3093 20.6833C14.837 18.6337 18.75 14.8545 18.75 10H17.25ZM10.3093 19.3167C6.00044 17.3663 2.75 13.982 2.75 10H1.25C1.25 14.8545 5.163 18.6337 9.69071 20.6833L10.3093 19.3167ZM2.75 10C2.75 5.99594 5.99594 2.75 10 2.75V1.25C5.16751 1.25 1.25 5.16751 1.25 10H2.75ZM10 2.75C14.0041 2.75 17.25 5.99594 17.25 10H18.75C18.75 5.16751 14.8325 1.25 10 1.25V2.75Z" fill="#211608" fill-opacity="0.7"/>
</svg>
