<svg width="500" height="500" viewBox="0 0 500 500" fill="none" xmlns="http://www.w3.org/2000/svg">
<g clip-path="url(#clip0_1101_3060)">
<mask id="mask0_1101_3060" style="mask-type:alpha" maskUnits="userSpaceOnUse" x="0" y="0" width="500" height="500">
<circle cx="250" cy="250" r="250" fill="#293561"/>
</mask>
<g mask="url(#mask0_1101_3060)">
<ellipse cx="250" cy="240.272" rx="308.139" ry="296.512" fill="#37383A"/>
<path d="M191.927 163.441V207.293C186.971 206.55 182.264 206.178 177.805 206.178C145.349 206.178 129.121 223.893 129.121 259.321V345.54H86.0119V164.556H128.006V193.543C132.218 183.881 139.031 176.324 148.446 170.873C157.86 165.175 168.514 162.326 180.406 162.326C184.37 162.326 188.21 162.698 191.927 163.441ZM256.201 235.165H345.021C344.525 223.769 340.437 214.23 332.757 206.55C325.324 198.87 314.547 195.029 300.425 195.029C287.542 195.029 277.136 199.117 269.208 207.293C261.28 215.221 256.944 224.512 256.201 235.165ZM349.852 282.363L386.272 293.883C381.069 310.483 371.283 324.233 356.913 335.134C342.791 345.787 325.324 351.114 304.513 351.114C278.747 351.114 256.821 342.319 238.735 324.728C220.896 307.138 211.977 283.601 211.977 254.119C211.977 226.37 220.649 203.577 237.991 185.739C255.582 167.9 276.269 158.981 300.054 158.981C327.802 158.981 349.48 167.529 365.089 184.624C380.697 201.471 388.502 224.264 388.502 253.004C388.502 260.684 388.13 265.268 387.387 266.754H255.086C255.582 280.381 260.537 291.653 269.951 300.572C279.614 309.492 291.134 313.951 304.513 313.951C327.802 313.951 342.915 303.422 349.852 282.363ZM508.483 198.746C494.609 198.746 482.84 203.825 473.178 213.983C463.516 223.893 458.684 237.519 458.684 254.862C458.684 272.452 463.516 286.327 473.178 296.484C483.088 306.642 495.104 311.721 509.226 311.721C521.862 311.721 531.896 308.377 539.328 301.687C547.009 294.75 552.088 286.946 554.565 278.275L592.471 292.025C587.516 308.129 577.854 322.003 563.484 333.648C549.362 345.292 531.276 351.114 509.226 351.114C482.717 351.114 460.419 341.947 442.333 323.613C424.494 305.28 415.575 282.363 415.575 254.862C415.575 227.114 424.371 204.196 441.961 186.11C459.799 168.024 481.849 158.981 508.111 158.981C530.657 158.981 548.991 164.803 563.113 176.448C577.482 188.092 586.773 202.09 590.985 218.442L552.335 232.564C549.858 223.149 545.027 215.221 537.842 208.78C530.905 202.09 521.118 198.746 508.483 198.746ZM672.421 297.228C682.331 307.386 694.347 312.465 708.469 312.465C722.591 312.465 734.483 307.386 744.146 297.228C754.056 287.07 759.011 272.948 759.011 254.862C759.011 237.024 754.056 223.149 744.146 213.239C734.483 203.081 722.591 198.002 708.469 198.002C694.347 198.002 682.331 203.081 672.421 213.239C662.759 223.149 657.928 237.024 657.928 254.862C657.928 272.7 662.759 286.822 672.421 297.228ZM708.469 158.981C735.722 158.981 758.144 168.024 775.734 186.11C793.573 204.196 802.492 227.114 802.492 254.862C802.492 282.61 793.573 305.651 775.734 323.985C758.144 342.071 735.722 351.114 708.469 351.114C681.464 351.114 659.042 342.071 641.204 323.985C623.614 305.651 614.818 282.61 614.818 254.862C614.818 227.114 623.614 204.196 641.204 186.11C659.042 168.024 681.464 158.981 708.469 158.981ZM886.89 345.54H844.152V164.556H885.403V187.597C890.358 178.678 897.791 171.741 907.701 166.786C917.859 161.83 928.264 159.353 938.918 159.353C951.058 159.353 961.959 162.078 971.621 167.529C981.284 172.979 988.468 180.907 993.176 191.313C1005.81 170.006 1025.38 159.353 1051.89 159.353C1069.73 159.353 1084.84 165.175 1097.23 176.82C1109.62 188.464 1115.81 205.559 1115.81 228.105V345.54H1074.19V235.165C1074.19 224.017 1071.22 215.097 1065.27 208.408C1059.57 201.471 1050.9 198.002 1039.26 198.002C1028.11 198.002 1019.07 201.843 1012.13 209.523C1005.19 217.203 1001.72 226.742 1001.72 238.139V345.54H959.357V235.165C959.357 224.017 956.384 215.097 950.438 208.408C944.74 201.471 936.069 198.002 924.424 198.002C913.028 198.002 903.861 201.843 896.924 209.523C890.234 216.956 886.89 226.494 886.89 238.139V345.54ZM1198.7 235.165H1287.52C1287.03 223.769 1282.94 214.23 1275.26 206.55C1267.83 198.87 1257.05 195.029 1242.93 195.029C1230.05 195.029 1219.64 199.117 1211.71 207.293C1203.78 215.221 1199.45 224.512 1198.7 235.165ZM1292.36 282.363L1328.78 293.883C1323.57 310.483 1313.79 324.233 1299.42 335.134C1285.29 345.787 1267.83 351.114 1247.02 351.114C1221.25 351.114 1199.32 342.319 1181.24 324.728C1163.4 307.138 1154.48 283.601 1154.48 254.119C1154.48 226.37 1163.15 203.577 1180.49 185.739C1198.09 167.9 1218.77 158.981 1242.56 158.981C1270.31 158.981 1291.98 167.529 1307.59 184.624C1323.2 201.471 1331.01 224.264 1331.01 253.004C1331.01 260.684 1330.63 265.268 1329.89 266.754H1197.59C1198.09 280.381 1203.04 291.653 1212.45 300.572C1222.12 309.492 1233.64 313.951 1247.02 313.951C1270.31 313.951 1285.42 303.422 1292.36 282.363Z" fill="#DBC4A1"/>
</g>
</g>
<defs>
<clipPath id="clip0_1101_3060">
<rect width="500" height="500" fill="white"/>
</clipPath>
</defs>
</svg>
