<svg width="93" height="37" viewBox="0 0 93 37" fill="none" xmlns="http://www.w3.org/2000/svg">
<g clip-path="url(#clip0_287_3936)">
<path d="M46.5829 21.6523C47.2696 22.3562 48.1023 22.7081 49.0808 22.7081C50.0594 22.7081 50.8834 22.3562 51.553 21.6523C52.2397 20.9484 52.583 19.9699 52.583 18.7167C52.583 17.4806 52.2397 16.5192 51.553 15.8325C50.8834 15.1286 50.0594 14.7767 49.0808 14.7767C48.1023 14.7767 47.2696 15.1286 46.5829 15.8325C45.9134 16.5192 45.5786 17.4806 45.5786 18.7167C45.5786 19.9527 45.9134 20.9313 46.5829 21.6523ZM49.0808 12.0728C50.9693 12.0728 52.5229 12.6994 53.7418 13.9527C54.9779 15.2059 55.5959 16.7939 55.5959 18.7167C55.5959 20.6394 54.9779 22.236 53.7418 23.5064C52.5229 24.7597 50.9693 25.3863 49.0808 25.3863C47.2096 25.3863 45.6559 24.7597 44.4198 23.5064C43.2009 22.236 42.5915 20.6394 42.5915 18.7167C42.5915 16.7939 43.2009 15.2059 44.4198 13.9527C45.6559 12.6994 47.2096 12.0728 49.0808 12.0728ZM61.4441 25H58.4827V12.4591H61.3411V14.0557C61.6845 13.4376 62.1995 12.9569 62.8862 12.6136C63.5901 12.2702 64.3111 12.0986 65.0493 12.0986C65.8905 12.0986 66.6459 12.2874 67.3154 12.6651C67.985 13.0428 68.4828 13.5921 68.809 14.3132C69.6845 12.8368 71.0408 12.0986 72.8777 12.0986C74.1138 12.0986 75.161 12.502 76.0194 13.3089C76.8778 14.1157 77.307 15.3003 77.307 16.8626V25H74.4228V17.3518C74.4228 16.5793 74.2168 15.9613 73.8048 15.4977C73.4099 15.017 72.809 14.7767 72.0022 14.7767C71.2296 14.7767 70.603 15.0428 70.1223 15.575C69.6416 16.1072 69.4013 16.7681 69.4013 17.5578V25H66.4656V17.3518C66.4656 16.5793 66.2596 15.9613 65.8476 15.4977C65.4527 15.017 64.8519 14.7767 64.045 14.7767C63.2553 14.7767 62.6201 15.0428 62.1394 15.575C61.6759 16.09 61.4441 16.751 61.4441 17.5578V25ZM83.0507 17.3518H89.2053C89.171 16.5621 88.8877 15.9012 88.3555 15.369C87.8405 14.8368 87.0937 14.5707 86.1151 14.5707C85.2224 14.5707 84.5014 14.854 83.952 15.4205C83.4027 15.9698 83.1022 16.6136 83.0507 17.3518ZM89.5401 20.6223L92.0637 21.4206C91.7032 22.5708 91.0251 23.5236 90.0294 24.279C89.0508 25.0172 87.8405 25.3863 86.3984 25.3863C84.613 25.3863 83.0936 24.7768 81.8404 23.5579C80.6043 22.339 79.9863 20.7081 79.9863 18.6652C79.9863 16.7424 80.5872 15.163 81.7889 13.9269C83.0078 12.6908 84.4413 12.0728 86.0894 12.0728C88.0122 12.0728 89.5143 12.6651 90.5959 13.8496C91.6774 15.017 92.2182 16.5965 92.2182 18.5879C92.2182 19.1201 92.1925 19.4377 92.141 19.5407H82.9735C83.0078 20.4849 83.3512 21.266 84.0035 21.8841C84.6731 22.5021 85.4714 22.8111 86.3984 22.8111C88.0122 22.8111 89.0594 22.0815 89.5401 20.6223Z" fill="#37383A"/>
<path d="M13.2993 12.3818V15.4205C12.956 15.369 12.6298 15.3432 12.3208 15.3432C10.0718 15.3432 8.94732 16.5707 8.94732 19.0257V25H5.96016V12.4591H8.87007V14.4677C9.16192 13.7981 9.63403 13.2745 10.2864 12.8968C10.9388 12.502 11.677 12.3046 12.501 12.3046C12.7757 12.3046 13.0418 12.3303 13.2993 12.3818ZM17.7531 17.3518H23.9077C23.8733 16.5621 23.5901 15.9012 23.0579 15.369C22.5428 14.8368 21.7961 14.5707 20.8175 14.5707C19.9248 14.5707 19.2038 14.854 18.6544 15.4205C18.105 15.9698 17.8046 16.6136 17.7531 17.3518ZM24.2424 20.6223L26.7661 21.4206C26.4056 22.5708 25.7274 23.5236 24.7317 24.279C23.7532 25.0172 22.5428 25.3863 21.1008 25.3863C19.3153 25.3863 17.796 24.7768 16.5428 23.5579C15.3067 22.339 14.6887 20.7081 14.6887 18.6652C14.6887 16.7424 15.2895 15.163 16.4913 13.9269C17.7102 12.6908 19.1437 12.0728 20.7918 12.0728C22.7145 12.0728 24.2167 12.6651 25.2982 13.8496C26.3798 15.017 26.9206 16.5965 26.9206 18.5879C26.9206 19.1201 26.8948 19.4377 26.8433 19.5407H17.6758C17.7102 20.4849 18.0535 21.266 18.7059 21.8841C19.3754 22.5021 20.1737 22.8111 21.1008 22.8111C22.7145 22.8111 23.7617 22.0815 24.2424 20.6223ZM35.2345 14.8282C34.2731 14.8282 33.4576 15.1801 32.7881 15.884C32.1185 16.5707 31.7838 17.5149 31.7838 18.7167C31.7838 19.9356 32.1185 20.8969 32.7881 21.6008C33.4748 22.3047 34.3074 22.6566 35.286 22.6566C36.1615 22.6566 36.8568 22.4249 37.3718 21.9613C37.904 21.4806 38.256 20.9399 38.4276 20.339L41.0543 21.2918C40.7109 22.4077 40.0414 23.3691 39.0457 24.176C38.0671 24.9828 36.8139 25.3863 35.286 25.3863C33.449 25.3863 31.9039 24.7511 30.6507 23.4807C29.4146 22.2103 28.7966 20.6223 28.7966 18.7167C28.7966 16.7939 29.4061 15.2059 30.625 13.9527C31.861 12.6994 33.3889 12.0728 35.2087 12.0728C36.771 12.0728 38.0414 12.4762 39.0199 13.2831C40.0156 14.09 40.6594 15.06 40.9513 16.193L38.2731 17.1716C38.1014 16.5192 37.7667 15.9698 37.2688 15.5235C36.7881 15.06 36.11 14.8282 35.2345 14.8282Z" fill="#37383A"/>
<mask id="mask0_287_3936" style="mask-type:alpha" maskUnits="userSpaceOnUse" x="0" y="0" width="35" height="36">
<ellipse cx="17.3233" cy="18.0081" rx="17.3233" ry="17.9871" fill="#293561"/>
</mask>
<g mask="url(#mask0_287_3936)">
<ellipse cx="17.3231" cy="18.3375" rx="21.3519" ry="20.9491" fill="#37383A"/>
<path d="M13.2993 12.3818V15.4205C12.956 15.369 12.6298 15.3432 12.3208 15.3432C10.0718 15.3432 8.94732 16.5707 8.94732 19.0257V25H5.96016V12.4591H8.87007V14.4677C9.16192 13.7981 9.63403 13.2745 10.2864 12.8968C10.9388 12.502 11.677 12.3046 12.501 12.3046C12.7757 12.3046 13.0418 12.3303 13.2993 12.3818ZM17.7531 17.3518H23.9077C23.8733 16.5621 23.5901 15.9012 23.0579 15.369C22.5428 14.8368 21.7961 14.5707 20.8175 14.5707C19.9248 14.5707 19.2038 14.854 18.6544 15.4205C18.105 15.9698 17.8046 16.6136 17.7531 17.3518ZM24.2424 20.6223L26.7661 21.4206C26.4056 22.5708 25.7274 23.5236 24.7317 24.279C23.7532 25.0172 22.5428 25.3863 21.1008 25.3863C19.3153 25.3863 17.796 24.7768 16.5428 23.5579C15.3067 22.339 14.6887 20.7081 14.6887 18.6652C14.6887 16.7424 15.2895 15.163 16.4913 13.9269C17.7102 12.6908 19.1437 12.0728 20.7918 12.0728C22.7145 12.0728 24.2167 12.6651 25.2982 13.8496C26.3798 15.017 26.9206 16.5965 26.9206 18.5879C26.9206 19.1201 26.8948 19.4377 26.8433 19.5407H17.6758C17.7102 20.4849 18.0535 21.266 18.7059 21.8841C19.3754 22.5021 20.1737 22.8111 21.1008 22.8111C22.7145 22.8111 23.7617 22.0815 24.2424 20.6223ZM35.2345 14.8282C34.2731 14.8282 33.4576 15.1801 32.7881 15.884C32.1185 16.5707 31.7838 17.5149 31.7838 18.7167C31.7838 19.9356 32.1185 20.8969 32.7881 21.6008C33.4748 22.3047 34.3074 22.6566 35.286 22.6566C36.1615 22.6566 36.8568 22.4249 37.3718 21.9613C37.904 21.4806 38.256 20.9399 38.4276 20.339L41.0543 21.2918C40.7109 22.4077 40.0414 23.3691 39.0457 24.176C38.0671 24.9828 36.8139 25.3863 35.286 25.3863C33.449 25.3863 31.9039 24.7511 30.6507 23.4807C29.4146 22.2103 28.7966 20.6223 28.7966 18.7167C28.7966 16.7939 29.4061 15.2059 30.625 13.9527C31.861 12.6994 33.3889 12.0728 35.2087 12.0728C36.771 12.0728 38.0414 12.4762 39.0199 13.2831C40.0156 14.09 40.6594 15.06 40.9513 16.193L38.2731 17.1716C38.1014 16.5192 37.7667 15.9698 37.2688 15.5235C36.7881 15.06 36.11 14.8282 35.2345 14.8282ZM46.5942 21.6523C47.2809 22.3562 48.1136 22.7081 49.0921 22.7081C50.0707 22.7081 50.8947 22.3562 51.5643 21.6523C52.251 20.9484 52.5943 19.9699 52.5943 18.7167C52.5943 17.4806 52.251 16.5192 51.5643 15.8325C50.8947 15.1286 50.0707 14.7767 49.0921 14.7767C48.1136 14.7767 47.2809 15.1286 46.5942 15.8325C45.9247 16.5192 45.5899 17.4806 45.5899 18.7167C45.5899 19.9527 45.9247 20.9313 46.5942 21.6523ZM49.0921 12.0728C50.9806 12.0728 52.5342 12.6994 53.7531 13.9527C54.9892 15.2059 55.6072 16.7939 55.6072 18.7167C55.6072 20.6394 54.9892 22.236 53.7531 23.5064C52.5342 24.7597 50.9806 25.3863 49.0921 25.3863C47.2209 25.3863 45.6672 24.7597 44.4311 23.5064C43.2122 22.236 42.6028 20.6394 42.6028 18.7167C42.6028 16.7939 43.2122 15.2059 44.4311 13.9527C45.6672 12.6994 47.2209 12.0728 49.0921 12.0728ZM61.4554 25H58.494V12.4591H61.3524V14.0557C61.6958 13.4376 62.2108 12.9569 62.8975 12.6136C63.6014 12.2702 64.3224 12.0986 65.0606 12.0986C65.9018 12.0986 66.6572 12.2874 67.3267 12.6651C67.9963 13.0428 68.4941 13.5921 68.8203 14.3132C69.6959 12.8368 71.0521 12.0986 72.889 12.0986C74.1251 12.0986 75.1723 12.502 76.0307 13.3089C76.8891 14.1157 77.3183 15.3003 77.3183 16.8626V25H74.4341V17.3518C74.4341 16.5793 74.2281 15.9613 73.8161 15.4977C73.4212 15.017 72.8204 14.7767 72.0135 14.7767C71.2409 14.7767 70.6143 15.0428 70.1336 15.575C69.6529 16.1072 69.4126 16.7681 69.4126 17.5578V25H66.4769V17.3518C66.4769 16.5793 66.2709 15.9613 65.8589 15.4977C65.464 15.017 64.8632 14.7767 64.0563 14.7767C63.2666 14.7767 62.6314 15.0428 62.1507 15.575C61.6872 16.09 61.4554 16.751 61.4554 17.5578V25ZM83.062 17.3518H89.2166C89.1823 16.5621 88.899 15.9012 88.3668 15.369C87.8518 14.8368 87.105 14.5707 86.1264 14.5707C85.2337 14.5707 84.5127 14.854 83.9633 15.4205C83.414 15.9698 83.1135 16.6136 83.062 17.3518ZM89.5514 20.6223L92.075 21.4206C91.7145 22.5708 91.0364 23.5236 90.0407 24.279C89.0621 25.0172 87.8518 25.3863 86.4097 25.3863C84.6243 25.3863 83.105 24.7768 81.8517 23.5579C80.6156 22.339 79.9976 20.7081 79.9976 18.6652C79.9976 16.7424 80.5985 15.163 81.8002 13.9269C83.0191 12.6908 84.4526 12.0728 86.1007 12.0728C88.0235 12.0728 89.5256 12.6651 90.6072 13.8496C91.6887 15.017 92.2295 16.5965 92.2295 18.5879C92.2295 19.1201 92.2038 19.4377 92.1523 19.5407H82.9848C83.0191 20.4849 83.3625 21.266 84.0148 21.8841C84.6844 22.5021 85.4827 22.8111 86.4097 22.8111C88.0235 22.8111 89.0707 22.0815 89.5514 20.6223Z" fill="#DBC4A1"/>
</g>
</g>
<defs>
<clipPath id="clip0_287_3936">
<rect width="93" height="37" fill="white"/>
</clipPath>
</defs>
</svg>
