<svg width="44" height="44" viewBox="0 0 44 44" fill="none" xmlns="http://www.w3.org/2000/svg">
<path d="M19.4073 23.0738L20.3795 22.1016L20.3795 22.1016L19.4073 23.0738ZM24.5927 23.0738L23.6205 22.1016L23.6205 22.1016L24.5927 23.0738ZM7.33333 10.5417H36.6667V7.79166H7.33333V10.5417ZM37.125 11V33H39.875V11H37.125ZM36.6667 33.4583H7.33333V36.2083H36.6667V33.4583ZM6.875 33V11H4.125V33H6.875ZM7.33333 33.4583C7.0802 33.4583 6.875 33.2531 6.875 33H4.125C4.125 34.7719 5.56142 36.2083 7.33333 36.2083V33.4583ZM37.125 33C37.125 33.2531 36.9198 33.4583 36.6667 33.4583V36.2083C38.4386 36.2083 39.875 34.7719 39.875 33H37.125ZM7.33333 7.79166C6.44776 7.79166 5.64379 8.15227 5.0647 8.73135L7.00924 10.6759C7.09369 10.5915 7.20639 10.5417 7.33333 10.5417V7.79166ZM5.0647 8.73135C4.48561 9.31044 4.125 10.1144 4.125 11H6.875C6.875 10.873 6.9248 10.7603 7.00924 10.6759L5.0647 8.73135ZM36.6667 10.5417C36.7936 10.5417 36.9063 10.5915 36.9908 10.6759L38.9353 8.73136C38.3562 8.15226 37.5522 7.79166 36.6667 7.79166V10.5417ZM36.9908 10.6759C37.0752 10.7603 37.125 10.873 37.125 11H39.875C39.875 10.1144 39.5144 9.31044 38.9353 8.73136L36.9908 10.6759ZM18.435 24.0461C20.4039 26.015 23.5961 26.015 25.565 24.0461L23.6205 22.1016C22.7255 22.9965 21.2745 22.9965 20.3795 22.1016L18.435 24.0461ZM5.0647 10.6759L18.435 24.0461L20.3795 22.1016L7.00924 8.73135L5.0647 10.6759ZM25.565 24.0461L38.9353 10.6759L36.9908 8.73135L23.6205 22.1016L25.565 24.0461Z" fill="#E9CCA7"/>
</svg>
