<svg width="218" height="174" viewBox="0 0 218 174" fill="none" xmlns="http://www.w3.org/2000/svg">
<path d="M93.3919 93.3913L99.2918 87.4914L99.2918 87.4914L93.3919 93.3913ZM124.858 93.3913L118.958 87.4914L118.958 87.4914L124.858 93.3913ZM20.125 17.3437H198.125V0.656251H20.125V17.3437ZM200.906 20.125V153.625H217.594V20.125H200.906ZM198.125 156.406H20.125V173.094H198.125V156.406ZM17.3437 153.625V20.125H0.656251V153.625H17.3437ZM20.125 156.406C18.589 156.406 17.3437 155.161 17.3437 153.625H0.656251C0.656251 164.377 9.37271 173.094 20.125 173.094V156.406ZM200.906 153.625C200.906 155.161 199.661 156.406 198.125 156.406V173.094C208.877 173.094 217.594 164.377 217.594 153.625H200.906ZM20.125 0.656251C14.7512 0.656251 9.87253 2.8445 6.35852 6.35852L18.1584 18.1584C18.6708 17.6459 19.3547 17.3437 20.125 17.3437V0.656251ZM6.35852 6.35852C2.8445 9.87253 0.656251 14.7512 0.656251 20.125H17.3437C17.3437 19.3547 17.6459 18.6708 18.1584 18.1584L6.35852 6.35852ZM198.125 17.3437C198.895 17.3437 199.579 17.6459 200.092 18.1583L211.891 6.35853C208.377 2.84449 203.499 0.656251 198.125 0.656251V17.3437ZM200.092 18.1583C200.604 18.6708 200.906 19.3547 200.906 20.125H217.594C217.594 14.7512 215.405 9.87254 211.891 6.35853L200.092 18.1583ZM87.4919 99.2913C99.4395 111.239 118.81 111.239 130.758 99.2913L118.958 87.4914C113.527 92.9222 104.723 92.9222 99.2918 87.4914L87.4919 99.2913ZM6.35854 18.1584L87.492 99.2913L99.2918 87.4914L18.1583 6.3585L6.35854 18.1584ZM130.758 99.2913L211.891 18.1584L200.092 6.3585L118.958 87.4914L130.758 99.2913Z" fill="#242527" fill-opacity="0.06"/>
</svg>
