<svg width="34" height="34" viewBox="0 0 34 34" fill="none" xmlns="http://www.w3.org/2000/svg">
<path d="M21.9583 15.2367C21.3757 15.2367 20.9033 15.709 20.9033 16.2917C20.9033 16.8743 21.3757 17.3467 21.9583 17.3467V15.2367ZM21.9725 17.3467C22.5552 17.3467 23.0275 16.8743 23.0275 16.2917C23.0275 15.709 22.5552 15.2367 21.9725 15.2367V17.3467ZM16.2917 15.2367C15.709 15.2367 15.2367 15.709 15.2367 16.2917C15.2367 16.8743 15.709 17.3467 16.2917 17.3467V15.2367ZM16.3058 17.3467C16.8885 17.3467 17.3608 16.8743 17.3608 16.2917C17.3608 15.709 16.8885 15.2367 16.3058 15.2367V17.3467ZM10.625 15.2367C10.0423 15.2367 9.57 15.709 9.57 16.2917C9.57 16.8743 10.0423 17.3467 10.625 17.3467V15.2367ZM10.6392 17.3467C11.2218 17.3467 11.6942 16.8743 11.6942 16.2917C11.6942 15.709 11.2218 15.2367 10.6392 15.2367V17.3467ZM21.675 27.0584L22.0087 26.0575C21.6824 25.9488 21.3236 26.0059 21.0472 26.2106L21.675 27.0584ZM29.75 29.7501L29.4164 30.7509C29.7955 30.8773 30.2135 30.7786 30.496 30.4961C30.7786 30.2135 30.8773 29.7955 30.7509 29.4164L29.75 29.7501ZM27.0584 21.6751L26.1909 21.0746C26.0019 21.3476 25.9525 21.6937 26.0575 22.0087L27.0584 21.6751ZM21.9583 17.3467H21.9725V15.2367H21.9583V17.3467ZM16.2917 17.3467H16.3058V15.2367H16.2917V17.3467ZM10.625 17.3467H10.6392V15.2367H10.625V17.3467ZM21.3414 28.0593L29.4164 30.7509L30.0837 28.7492L22.0087 26.0575L21.3414 28.0593ZM30.7509 29.4164L28.0592 21.3414L26.0575 22.0087L28.7492 30.0837L30.7509 29.4164ZM16.2917 27.2783C10.2239 27.2783 5.305 22.3594 5.305 16.2917H3.195C3.195 23.5248 9.05858 29.3883 16.2917 29.3883V27.2783ZM5.305 16.2917C5.305 10.2239 10.2239 5.305 16.2917 5.305V3.195C9.05858 3.195 3.195 9.05858 3.195 16.2917H5.305ZM16.2917 5.305C22.3594 5.305 27.2783 10.2239 27.2783 16.2917H29.3883C29.3883 9.05858 23.5248 3.195 16.2917 3.195V5.305ZM21.675 27.0584C21.0472 26.2106 21.0476 26.2102 21.048 26.2099C21.0482 26.2098 21.0486 26.2096 21.0488 26.2094C21.0493 26.209 21.0498 26.2086 21.0503 26.2083C21.0512 26.2076 21.052 26.207 21.0527 26.2065C21.0542 26.2054 21.0552 26.2047 21.0558 26.2042C21.0571 26.2033 21.0567 26.2036 21.0548 26.205C21.0508 26.2077 21.0404 26.2148 21.0234 26.2257C20.9895 26.2476 20.9294 26.2845 20.8427 26.3319C20.6695 26.4266 20.3898 26.563 20.0001 26.7029C19.2227 26.9819 17.9973 27.2783 16.2917 27.2783V29.3883C18.2477 29.3883 19.7139 29.0473 20.7128 28.6889C21.2113 28.51 21.5909 28.3276 21.8549 28.1833C21.9869 28.1111 22.0899 28.0485 22.1644 28.0006C22.2017 27.9767 22.2318 27.9564 22.2548 27.9405C22.2664 27.9325 22.2761 27.9256 22.2841 27.9199C22.2881 27.917 22.2917 27.9144 22.2948 27.9122C22.2964 27.911 22.2978 27.91 22.2992 27.909C22.2998 27.9085 22.3005 27.908 22.3011 27.9076C22.3014 27.9073 22.3019 27.907 22.302 27.9069C22.3024 27.9066 22.3029 27.9063 21.675 27.0584ZM27.2783 16.2917C27.2783 17.9335 26.9832 19.1608 26.701 19.9604C26.5596 20.3609 26.421 20.6555 26.3232 20.8421C26.2743 20.9354 26.2356 21.0016 26.212 21.0405C26.2001 21.0599 26.1921 21.0725 26.1884 21.0782C26.1865 21.0811 26.1857 21.0822 26.1861 21.0816C26.1863 21.0813 26.1868 21.0805 26.1876 21.0794C26.188 21.0788 26.1885 21.0781 26.1891 21.0773C26.1893 21.0769 26.1896 21.0765 26.1899 21.076C26.1901 21.0758 26.1903 21.0754 26.1904 21.0753C26.1907 21.075 26.1909 21.0746 27.0584 21.6751C27.9258 22.2756 27.9261 22.2752 27.9263 22.2748C27.9264 22.2746 27.9267 22.2742 27.9269 22.2739C27.9273 22.2734 27.9277 22.2728 27.9281 22.2722C27.929 22.2709 27.9299 22.2695 27.9309 22.2681C27.933 22.2651 27.9353 22.2617 27.9379 22.2578C27.9431 22.25 27.9495 22.2403 27.957 22.2288C27.972 22.2058 27.9913 22.1754 28.0143 22.1375C28.0604 22.0619 28.1213 21.9565 28.192 21.8218C28.3332 21.5524 28.5133 21.1652 28.6907 20.6626C29.046 19.6559 29.3883 18.1915 29.3883 16.2917H27.2783Z" fill="#242527" fill-opacity="0.8"/>
</svg>
