<svg width="427" height="427" viewBox="0 0 427 427" fill="none" xmlns="http://www.w3.org/2000/svg">
<path d="M142.333 155.677C134.964 155.677 128.99 161.651 128.99 169.021C128.99 176.39 134.964 182.365 142.333 182.365V155.677ZM266.875 182.365C274.245 182.365 280.219 176.39 280.219 169.021C280.219 161.651 274.245 155.677 266.875 155.677V182.365ZM142.333 226.844C134.964 226.844 128.99 232.818 128.99 240.187C128.99 247.557 134.964 253.531 142.333 253.531V226.844ZM231.292 253.531C238.661 253.531 244.635 247.557 244.635 240.187C244.635 232.818 238.661 226.844 231.292 226.844V253.531ZM272.213 339.822L276.433 327.163C272.306 325.787 267.768 326.509 264.272 329.098L272.213 339.822ZM373.625 373.626L369.406 386.285C374.201 387.883 379.487 386.635 383.061 383.061C386.635 379.487 387.883 374.201 386.284 369.406L373.625 373.626ZM339.821 272.213L328.85 264.618C326.459 268.071 325.834 272.449 327.162 276.433L339.821 272.213ZM142.333 182.365H266.875V155.677H142.333V182.365ZM142.333 253.531H231.292V226.844H142.333V253.531ZM267.993 352.481L369.406 386.285L377.845 360.967L276.433 327.163L267.993 352.481ZM386.284 369.406L352.48 267.994L327.162 276.433L360.966 377.846L386.284 369.406ZM204.604 342.49C128.452 342.49 66.7187 280.756 66.7187 204.604H40.0313C40.0313 295.495 113.713 369.177 204.604 369.177V342.49ZM66.7187 204.604C66.7187 128.452 128.452 66.7187 204.604 66.7187V40.0313C113.713 40.0313 40.0313 113.713 40.0313 204.604H66.7187ZM204.604 66.7187C280.756 66.7187 342.49 128.452 342.49 204.604H369.177C369.177 113.713 295.495 40.0313 204.604 40.0313V66.7187ZM272.213 339.822C264.272 329.098 264.277 329.094 264.282 329.09C264.284 329.089 264.289 329.085 264.292 329.083C264.299 329.078 264.305 329.074 264.311 329.069C264.323 329.061 264.333 329.053 264.342 329.046C264.36 329.033 264.374 329.024 264.382 329.018C264.398 329.006 264.394 329.009 264.37 329.026C264.321 329.06 264.191 329.149 263.978 329.285C263.554 329.558 262.801 330.021 261.715 330.615C259.543 331.802 256.035 333.513 251.146 335.268C241.393 338.768 226.014 342.49 204.604 342.49V369.177C229.181 369.177 247.606 364.893 260.161 360.387C266.425 358.139 271.197 355.847 274.517 354.032C276.176 353.124 277.472 352.337 278.41 351.734C278.878 351.433 279.258 351.178 279.548 350.977C279.693 350.876 279.816 350.79 279.917 350.717C279.968 350.681 280.013 350.649 280.052 350.62C280.072 350.606 280.09 350.592 280.107 350.58C280.116 350.574 280.124 350.568 280.132 350.562C280.135 350.559 280.141 350.555 280.143 350.553C280.148 350.549 280.154 350.545 272.213 339.822ZM342.49 204.604C342.49 225.212 338.785 240.615 335.244 250.648C333.47 255.673 331.731 259.369 330.505 261.709C329.892 262.878 329.407 263.708 329.111 264.195C328.963 264.438 328.862 264.595 328.816 264.666C328.793 264.702 328.784 264.715 328.789 264.707C328.792 264.703 328.798 264.694 328.808 264.679C328.813 264.672 328.819 264.663 328.826 264.653C328.83 264.648 328.833 264.642 328.837 264.637C328.839 264.634 328.842 264.629 328.843 264.628C328.847 264.623 328.85 264.618 339.821 272.213C350.793 279.808 350.796 279.803 350.799 279.798C350.801 279.797 350.804 279.792 350.807 279.788C350.812 279.781 350.817 279.773 350.822 279.765C350.833 279.75 350.845 279.732 350.858 279.714C350.883 279.676 350.912 279.633 350.945 279.584C351.011 279.486 351.092 279.364 351.186 279.219C351.375 278.93 351.618 278.546 351.908 278.07C352.487 277.118 353.253 275.794 354.141 274.1C355.917 270.713 358.181 265.846 360.41 259.529C364.876 246.877 369.177 228.475 369.177 204.604H342.49Z" fill="white" fill-opacity="0.03"/>
</svg>
