<svg width="150" height="150" viewBox="0 0 150 150" fill="none" xmlns="http://www.w3.org/2000/svg">
<rect width="150" height="150" fill="white"/>
<path d="M66.25 42.5312C64.5414 42.5312 63.1562 43.9164 63.1562 45.625C63.1562 47.3336 64.5414 48.7188 66.25 48.7188V42.5312ZM108.531 91C108.531 92.7086 109.916 94.0938 111.625 94.0938C113.334 94.0938 114.719 92.7086 114.719 91H108.531ZM39.5626 35.1874C38.3544 33.9792 36.3956 33.9792 35.1874 35.1874C33.9792 36.3956 33.9792 38.3544 35.1874 39.5626L39.5626 35.1874ZM109.437 113.813C110.646 115.021 112.604 115.021 113.813 113.813C115.021 112.604 115.021 110.646 113.813 109.437L109.437 113.813ZM72.7498 93.9955C74.4476 94.1872 75.9793 92.9661 76.171 91.2683C76.3626 89.5704 75.1415 88.0387 73.4437 87.8471L72.7498 93.9955ZM65.2829 79.725C65.0832 78.0281 63.5458 76.8143 61.8488 77.014C60.1519 77.2136 58.9381 78.7511 59.1378 80.448L65.2829 79.725ZM40.4688 62.125C40.4688 60.4164 39.0836 59.0312 37.375 59.0312C35.6664 59.0312 34.2812 60.4164 34.2812 62.125H40.4688ZM82.75 106.469C84.4586 106.469 85.8438 105.084 85.8438 103.375C85.8438 101.666 84.4586 100.281 82.75 100.281V106.469ZM93.0625 56.9688H103.375V50.7812H93.0625V56.9688ZM85.8438 49.75C85.8438 53.7368 89.0757 56.9688 93.0625 56.9688V50.7812C92.493 50.7812 92.0312 50.3195 92.0312 49.75H85.8438ZM92.0312 49.75C92.0312 45.7632 88.7993 42.5312 84.8125 42.5312V48.7188C85.382 48.7188 85.8438 49.1805 85.8438 49.75H92.0312ZM114.719 62.125C114.719 55.86 109.64 50.7812 103.375 50.7812V56.9688C106.223 56.9688 108.531 59.2773 108.531 62.125H114.719ZM66.25 48.7188H84.8125V42.5312H66.25V48.7188ZM108.531 62.125V91H114.719V62.125H108.531ZM35.1874 39.5626L109.437 113.813L113.813 109.437L39.5626 35.1874L35.1874 39.5626ZM73.4437 87.8471C69.179 87.3658 65.784 83.9839 65.2829 79.725L59.1378 80.448C59.9747 87.5608 65.6268 93.1916 72.7498 93.9955L73.4437 87.8471ZM40.4688 95.125V62.125H34.2812V95.125H40.4688ZM45.625 100.281C42.7773 100.281 40.4688 97.9727 40.4688 95.125H34.2812C34.2812 101.39 39.36 106.469 45.625 106.469V100.281ZM82.75 100.281H45.625V106.469H82.75V100.281Z" fill="#BCA37B"/>
</svg>
