<svg width="44" height="44" viewBox="0 0 44 44" fill="none" xmlns="http://www.w3.org/2000/svg">
<path d="M38.4989 30.2072L37.1243 30.173C37.124 30.1844 37.1239 30.1958 37.1239 30.2072L38.4989 30.2072ZM38.4989 35.1751L37.1239 35.1751L37.1239 35.1807L38.4989 35.1751ZM8.81486 5.50016L8.81486 4.12516L8.81357 4.12516L8.81486 5.50016ZM13.7926 5.50016L13.7926 6.87523L13.8061 6.87509L13.7926 5.50016ZM15.9891 6.30088L15.0935 7.34426L15.0935 7.34426L15.9891 6.30088ZM15.4187 18.5989L14.4474 17.6256C14.0086 18.0636 13.9171 18.7409 14.224 19.2795L15.4187 18.5989ZM25.3742 28.5347L24.6956 29.7306C25.2331 30.0356 25.9081 29.9445 26.3455 29.5079L25.3742 28.5347ZM37.7133 27.9841L38.7615 27.0942L38.7615 27.0942L37.7133 27.9841ZM18.4118 14.8578L19.7565 15.1452L19.7565 15.1452L18.4118 14.8578ZM29.1227 25.5475L29.4089 26.8924L29.4089 26.8924L29.1227 25.5475ZM34.8817 38.4871L35.0052 37.1176C34.9638 37.1139 34.9222 37.112 34.8806 37.1121L34.8817 38.4871ZM5.51295 9.11017L6.88795 9.11126C6.88798 9.0695 6.88612 9.02777 6.88235 8.98618L5.51295 9.11017ZM37.1239 30.2072V35.1751H39.8739V30.2072H37.1239ZM8.81486 6.87516H13.7926V4.12516H8.81486V6.87516ZM13.8061 6.87509C14.2785 6.87045 14.7361 7.03743 15.0935 7.34426L16.8846 5.25749C16.021 4.51625 14.9172 4.11405 13.7791 4.12523L13.8061 6.87509ZM14.224 19.2795C16.7087 23.6406 20.3265 27.2512 24.6956 29.7306L26.0528 27.3388C22.1138 25.1035 18.8528 21.8487 16.6134 17.9182L14.224 19.2795ZM36.6651 28.874C36.9729 29.2365 37.1361 29.6989 37.1243 30.173L39.8735 30.2414C39.9021 29.0913 39.5061 27.9712 38.7615 27.0942L36.6651 28.874ZM15.0935 7.34426C15.3183 7.53716 15.6136 7.93679 15.92 8.57714C16.2157 9.19522 16.4772 9.94335 16.6817 10.7302C17.1079 12.3696 17.214 13.8836 17.0672 14.5705L19.7565 15.1452C20.0393 13.8218 19.8018 11.8023 19.3432 10.0382C19.1054 9.12334 18.7891 8.20228 18.4007 7.39035C18.0229 6.6007 17.5278 5.80952 16.8846 5.25749L15.0935 7.34426ZM29.4089 26.8924C30.1002 26.7452 31.6249 26.852 33.2722 27.2801C34.0631 27.4856 34.8145 27.7483 35.4342 28.0455C36.0767 28.3535 36.4748 28.6498 36.6651 28.874L38.7615 27.0942C38.2099 26.4444 37.4153 25.9455 36.6231 25.5657C35.8082 25.175 34.8829 24.8573 33.9638 24.6185C32.1912 24.1579 30.1625 23.9204 28.8364 24.2026L29.4089 26.8924ZM26.3455 29.5079C26.642 29.212 26.94 28.8814 27.2059 28.5914C27.4834 28.2888 27.7415 28.0129 28.0047 27.765C28.5423 27.2588 28.9872 26.9821 29.4089 26.8924L28.8364 24.2026C27.6855 24.4476 26.7939 25.1278 26.1194 25.7631C25.7765 26.0859 25.4596 26.427 25.1791 26.7328C24.8871 27.0513 24.6442 27.3206 24.4029 27.5615L26.3455 29.5079ZM17.0672 14.5705C16.9776 14.9896 16.7013 15.4329 16.1937 15.9697C15.9454 16.2324 15.6689 16.49 15.3657 16.7669C15.0751 17.0323 14.7439 17.3298 14.4474 17.6256L16.39 19.5721C16.6313 19.3312 16.9012 19.0889 17.2203 18.7974C17.5267 18.5175 17.8684 18.2012 18.192 17.859C18.8283 17.186 19.5106 16.2956 19.7565 15.1452L17.0672 14.5705ZM34.8806 37.1121C19.0964 37.1244 6.8756 24.7922 6.88795 9.11126L4.13795 9.10909C4.1244 26.3027 17.5703 39.8756 34.8828 39.8621L34.8806 37.1121ZM37.1239 35.1807C37.1283 36.2727 36.1122 37.2175 35.0052 37.1176L34.7582 39.8565C37.4859 40.1025 39.8849 37.8757 39.8739 35.1695L37.1239 35.1807ZM6.88235 8.98618C6.78333 7.8926 7.7183 6.87619 8.81616 6.87516L8.81357 4.12516C6.11815 4.12769 3.89721 6.51354 4.14355 9.23417L6.88235 8.98618Z" fill="#BCA37B"/>
</svg>
