<svg width="16" height="16" viewBox="0 0 16 16" fill="none" xmlns="http://www.w3.org/2000/svg">
<path d="M1.3335 6.78815C0.664257 6.78815 0.121731 7.33068 0.121731 7.99992C0.121731 8.66916 0.664257 9.21168 1.3335 9.21168V6.78815ZM14.6668 9.21168C15.3361 9.21168 15.8786 8.66916 15.8786 7.99992C15.8786 7.33068 15.3361 6.78815 14.6668 6.78815V9.21168ZM9.21193 1.33325C9.21193 0.664013 8.6694 0.121487 8.00016 0.121487C7.33092 0.121487 6.7884 0.664013 6.7884 1.33325H9.21193ZM6.7884 14.6666C6.7884 15.3358 7.33092 15.8784 8.00016 15.8784C8.6694 15.8784 9.21193 15.3358 9.21193 14.6666H6.7884ZM1.3335 9.21168H14.6668V6.78815H1.3335V9.21168ZM6.7884 1.33325V14.6666H9.21193V1.33325H6.7884Z" fill="#242527"/>
</svg>
