<svg width="34" height="34" viewBox="0 0 34 34" fill="none" xmlns="http://www.w3.org/2000/svg">
<path d="M5.66699 15.5C4.83857 15.5 4.16699 16.1716 4.16699 17C4.16699 17.8284 4.83857 18.5 5.66699 18.5V15.5ZM28.3337 18.5C29.1621 18.5 29.8337 17.8284 29.8337 17C29.8337 16.1716 29.1621 15.5 28.3337 15.5V18.5ZM18.5003 5.66667C18.5003 4.83824 17.8288 4.16667 17.0003 4.16667C16.1719 4.16667 15.5003 4.83824 15.5003 5.66667H18.5003ZM15.5003 28.3333C15.5003 29.1618 16.1719 29.8333 17.0003 29.8333C17.8288 29.8333 18.5003 29.1618 18.5003 28.3333H15.5003ZM5.66699 18.5H28.3337V15.5H5.66699V18.5ZM15.5003 5.66667V28.3333H18.5003V5.66667H15.5003Z" fill="#E9CCA7"/>
</svg>
