<svg width="243" height="610" viewBox="0 0 243 610" fill="none" xmlns="http://www.w3.org/2000/svg">
<g clip-path="url(#clip0_23_1938)">
<rect width="243" height="610" fill="#E7E3DD"/>
<path d="M96.3112 404.718H150.661C149.74 410.859 149.279 416.693 149.279 422.22C149.279 462.445 171.234 482.557 215.143 482.557H322V535.986H97.693V483.939H133.619C121.644 478.719 112.278 470.275 105.523 458.607C98.4606 446.938 94.9294 433.735 94.9294 418.996C94.9294 414.083 95.39 409.324 96.3112 404.718ZM185.205 325.057V214.977C171.08 215.591 159.258 220.657 149.74 230.176C140.221 239.388 135.461 252.745 135.461 270.247C135.461 286.214 140.528 299.111 150.661 308.937C160.487 318.763 172.001 324.136 185.205 325.057ZM243.7 208.989L257.978 163.851C278.551 170.299 295.593 182.428 309.103 200.238C322.307 217.74 328.909 239.388 328.909 265.181C328.909 297.115 318.008 324.29 296.207 346.705C274.406 368.813 245.235 379.868 208.695 379.868C174.304 379.868 146.055 369.12 123.947 347.626C101.838 325.825 90.7841 300.186 90.7841 270.708C90.7841 236.317 101.378 209.449 122.565 190.105C143.445 170.76 171.694 161.088 207.313 161.088C216.832 161.088 222.513 161.548 224.355 162.469V326.439C241.243 325.825 255.215 319.684 266.269 308.016C277.323 296.04 282.85 281.762 282.85 265.181C282.85 236.317 269.8 217.587 243.7 208.989ZM140.067 12.3856C140.067 29.5809 146.362 44.1662 158.951 56.1416C171.234 68.1169 188.122 74.1045 209.616 74.1045C231.417 74.1045 248.613 68.1169 261.202 56.1416C273.792 43.8592 280.086 28.9668 280.086 11.4644C280.086 -4.19566 275.941 -16.6316 267.65 -25.8434C259.053 -35.3622 249.38 -41.6569 238.633 -44.7275L255.675 -91.7076C275.634 -85.5665 292.829 -73.5911 307.261 -55.7817C321.693 -38.2793 328.909 -15.8639 328.909 11.4644C328.909 44.3198 317.548 71.9551 294.825 94.3705C272.103 116.479 243.7 127.533 209.616 127.533C175.226 127.533 146.823 116.632 124.407 94.8311C101.992 72.7228 90.7841 45.3945 90.7841 12.8461C90.7841 -15.0963 98 -37.8187 112.432 -55.3211C126.864 -73.1305 144.213 -84.6453 164.478 -89.8653L181.981 -41.964C170.313 -38.8934 160.487 -32.9057 152.503 -24.001C144.213 -15.4033 140.067 -3.27449 140.067 12.3856ZM262.123 -190.796C274.713 -203.078 281.008 -217.97 281.008 -235.473C281.008 -252.975 274.713 -267.714 262.123 -279.689C249.534 -291.972 232.032 -298.113 209.616 -298.113C187.508 -298.113 170.313 -291.972 158.03 -279.689C145.441 -267.714 139.146 -252.975 139.146 -235.473C139.146 -217.97 145.441 -203.078 158.03 -190.796C170.313 -178.82 187.508 -172.833 209.616 -172.833C231.724 -172.833 249.227 -178.82 262.123 -190.796ZM90.7841 -235.473C90.7841 -269.249 101.992 -297.038 124.407 -318.839C146.823 -340.948 175.226 -352.002 209.616 -352.002C244.007 -352.002 272.563 -340.948 295.286 -318.839C317.701 -297.038 328.909 -269.249 328.909 -235.473C328.909 -202.003 317.701 -174.214 295.286 -152.106C272.563 -130.305 244.007 -119.404 209.616 -119.404C175.226 -119.404 146.823 -130.305 124.407 -152.106C101.992 -174.214 90.7841 -202.003 90.7841 -235.473ZM322 -456.602V-403.635H97.693L97.693 -454.76H126.25C115.195 -460.901 106.598 -470.113 100.457 -482.395C94.3153 -494.985 91.2447 -507.881 91.2447 -521.085C91.2447 -536.131 94.6224 -549.641 101.378 -561.617C108.133 -573.592 117.959 -582.497 130.855 -588.331C104.448 -603.991 91.2447 -628.249 91.2447 -661.104C91.2447 -683.212 98.4606 -701.943 112.892 -717.296C127.324 -732.649 148.511 -740.325 176.454 -740.325H322V-688.739H185.205C171.387 -688.739 160.333 -685.055 152.043 -677.685C143.445 -670.623 139.146 -659.876 139.146 -645.444C139.146 -631.626 143.905 -620.419 153.424 -611.821C162.943 -603.223 174.765 -598.924 188.89 -598.924H322V-546.417H185.205C171.387 -546.417 160.333 -542.733 152.043 -535.363C143.445 -528.301 139.146 -517.554 139.146 -503.122C139.146 -488.997 143.905 -477.636 153.424 -469.038C162.636 -460.748 174.458 -456.602 188.89 -456.602H322ZM185.205 -843.058V-953.139C171.08 -952.525 159.258 -947.459 149.74 -937.94C140.221 -928.728 135.461 -915.371 135.461 -897.868C135.461 -881.901 140.528 -869.005 150.661 -859.179C160.487 -849.353 172.001 -843.98 185.205 -843.058ZM243.7 -959.127L257.978 -1004.26C278.551 -997.816 295.593 -985.688 309.103 -967.878C322.307 -950.376 328.909 -928.728 328.909 -902.935C328.909 -871.001 318.008 -843.826 296.207 -821.411C274.406 -799.302 245.235 -788.248 208.695 -788.248C174.304 -788.248 146.055 -798.995 123.947 -820.489C101.838 -842.291 90.7841 -867.93 90.7841 -897.408C90.7841 -931.799 101.378 -958.666 122.565 -978.011C143.445 -997.356 171.694 -1007.03 207.313 -1007.03C216.832 -1007.03 222.513 -1006.57 224.355 -1005.65V-841.677C241.243 -842.291 255.215 -848.432 266.269 -860.1C277.323 -872.075 282.85 -886.354 282.85 -902.935C282.85 -931.799 269.8 -950.529 243.7 -959.127Z" fill="white" fill-opacity="0.4"/>
</g>
<defs>
<clipPath id="clip0_23_1938">
<rect width="243" height="610" fill="white"/>
</clipPath>
</defs>
</svg>
