<svg width="16" height="16" viewBox="0 0 16 16" fill="none" xmlns="http://www.w3.org/2000/svg">
<g clip-path="url(#clip0_290_3021)">
<path d="M4.7002 14.8H11.1002M7.9002 14.8V11.6M7.9002 11.6C5.69106 11.6 3.9002 9.80909 3.9002 7.59995V1.19995H11.9002V7.59995C11.9002 9.80909 10.1093 11.6 7.9002 11.6ZM11.9002 2.79995H13.1002C14.2048 2.79995 15.1002 3.69538 15.1002 4.79995C15.1002 5.90452 14.2048 6.79995 13.1002 6.79995H11.9002M3.9002 6.79995H2.7002C1.59563 6.79995 0.700195 5.90452 0.700195 4.79995C0.700195 3.69538 1.59563 2.79995 2.7002 2.79995H3.9002" stroke="#E9CCA7" stroke-width="0.88" stroke-linecap="round" stroke-linejoin="round"/>
<path d="M6.0808 7.99115C6.2536 7.99115 6.3784 7.98155 6.4552 7.96235C6.532 7.93835 6.58 7.89995 6.5992 7.84715C6.6232 7.79435 6.6352 7.70795 6.6352 7.58795V4.06715C6.6352 3.94235 6.6232 3.85355 6.5992 3.80075C6.5752 3.74795 6.5248 3.71195 6.448 3.69275C6.376 3.66875 6.2536 3.65675 6.0808 3.65675V3.44795H8.0176C8.4928 3.44795 8.8648 3.54635 9.1336 3.74315C9.4024 3.93995 9.5368 4.23275 9.5368 4.62155C9.5368 4.94795 9.4432 5.21195 9.256 5.41355C9.0736 5.61515 8.8264 5.75195 8.5144 5.82395V5.83835C8.7592 5.91035 8.9392 6.02795 9.0544 6.19115C9.1744 6.35435 9.2608 6.60395 9.3136 6.93995L9.3568 7.20635C9.4048 7.47515 9.472 7.67435 9.5584 7.80395C9.6448 7.92875 9.7792 7.99115 9.9616 7.99115V8.19995H9.0256C8.9008 8.08475 8.8048 7.86395 8.7376 7.53755L8.5648 6.65195C8.5168 6.41195 8.428 6.23915 8.2984 6.13355C8.1736 6.02315 7.9864 5.96795 7.7368 5.96795H7.2976V7.58795C7.2976 7.70795 7.3096 7.79675 7.3336 7.85435C7.3576 7.90715 7.4104 7.94315 7.492 7.96235C7.5736 7.98155 7.7056 7.99115 7.888 7.99115V8.19995H6.0808V7.99115ZM7.7512 5.70875C8.116 5.70875 8.3848 5.62955 8.5576 5.47115C8.7304 5.30795 8.8168 5.05355 8.8168 4.70795C8.8168 4.36235 8.728 4.10795 8.5504 3.94475C8.3728 3.78155 8.1016 3.69995 7.7368 3.69995C7.5544 3.69995 7.4344 3.72155 7.3768 3.76475C7.324 3.80315 7.2976 3.87035 7.2976 3.96635V5.70875H7.7512Z" fill="#E9CCA7"/>
</g>
<defs>
<clipPath id="clip0_290_3021">
<rect width="15.8" height="15.8" fill="white"/>
</clipPath>
</defs>
</svg>
