<svg width="22" height="22" viewBox="0 0 22 22" fill="none" xmlns="http://www.w3.org/2000/svg">
<path d="M14.2873 4.20396L13.8012 4.6901L13.8012 4.6901L14.2873 4.20396ZM17.7967 7.71336L18.2828 7.22722L18.2828 7.22722L17.7967 7.71336ZM8.25033 13.7503V13.0628C7.87063 13.0628 7.56283 13.3706 7.56283 13.7503H8.25033ZM13.7503 13.7503H14.4378C14.4378 13.3706 14.13 13.0628 13.7503 13.0628V13.7503ZM13.0628 18.3337C13.0628 18.7134 13.3706 19.0212 13.7503 19.0212C14.13 19.0212 14.4378 18.7134 14.4378 18.3337H13.0628ZM7.56283 18.3337C7.56283 18.7134 7.87063 19.0212 8.25033 19.0212C8.63002 19.0212 8.93783 18.7134 8.93783 18.3337H7.56283ZM16.5003 17.6462H5.50033V19.0212H16.5003V17.6462ZM4.35449 16.5003V5.50033H2.97949V16.5003H4.35449ZM5.50033 4.35449H12.9909V2.97949H5.50033V4.35449ZM17.6462 9.00972V16.5003H19.0212V9.00972H17.6462ZM13.8012 4.6901L17.3106 8.19949L18.2828 7.22722L14.7734 3.71783L13.8012 4.6901ZM19.0212 9.00972C19.0212 8.34115 18.7556 7.69997 18.2828 7.22722L17.3106 8.19949C17.5254 8.41438 17.6462 8.70582 17.6462 9.00972H19.0212ZM12.9909 4.35449C13.2948 4.35449 13.5863 4.47521 13.8012 4.6901L14.7734 3.71783C14.3007 3.24508 13.6595 2.97949 12.9909 2.97949V4.35449ZM5.50033 17.6462C4.8675 17.6462 4.35449 17.1332 4.35449 16.5003H2.97949C2.97949 17.8925 4.10811 19.0212 5.50033 19.0212V17.6462ZM16.5003 19.0212C17.8925 19.0212 19.0212 17.8925 19.0212 16.5003H17.6462C17.6462 17.1332 17.1332 17.6462 16.5003 17.6462V19.0212ZM4.35449 5.50033C4.35449 4.8675 4.8675 4.35449 5.50033 4.35449V2.97949C4.10811 2.97949 2.97949 4.10811 2.97949 5.50033H4.35449ZM8.25033 14.4378H13.7503V13.0628H8.25033V14.4378ZM13.0628 13.7503V18.3337H14.4378V13.7503H13.0628ZM8.93783 18.3337V13.7503H7.56283V18.3337H8.93783Z" fill="#ECEAE7"/>
</svg>
