<svg width="20" height="21" viewBox="0 0 20 21" fill="none" xmlns="http://www.w3.org/2000/svg">
<path d="M16.2247 17.6086C16.4688 17.8527 16.8645 17.8527 17.1086 17.6086C17.3527 17.3645 17.3527 16.9688 17.1086 16.7247L16.2247 17.6086ZM13.6114 13.2275C13.3673 12.9834 12.9716 12.9834 12.7275 13.2275C12.4834 13.4716 12.4834 13.8673 12.7275 14.1114L13.6114 13.2275ZM8.75 14.875C5.6434 14.875 3.125 12.3566 3.125 9.25H1.875C1.875 13.047 4.95304 16.125 8.75 16.125V14.875ZM3.125 9.25C3.125 6.1434 5.6434 3.625 8.75 3.625V2.375C4.95304 2.375 1.875 5.45304 1.875 9.25H3.125ZM8.75 3.625C11.8566 3.625 14.375 6.1434 14.375 9.25H15.625C15.625 5.45304 12.547 2.375 8.75 2.375V3.625ZM14.375 9.25C14.375 12.3566 11.8566 14.875 8.75 14.875V16.125C12.547 16.125 15.625 13.047 15.625 9.25H14.375ZM17.1086 16.7247L13.6114 13.2275L12.7275 14.1114L16.2247 17.6086L17.1086 16.7247Z" fill="white"/>
</svg>
