<svg width="34" height="34" viewBox="0 0 34 34" fill="none" xmlns="http://www.w3.org/2000/svg">
<path d="M11.3139 9.89945L11.6024 9.20715C11.3236 9.091 11.0024 9.15336 10.7874 9.36535C10.5724 9.57734 10.5054 9.89763 10.6176 10.178L11.3139 9.89945ZM28.2845 16.9705L28.5729 17.6628C28.8524 17.5464 29.0345 17.2733 29.0345 16.9705C29.0345 16.6677 28.8524 16.3947 28.5729 16.2782L28.2845 16.9705ZM11.3139 24.0416L10.6176 23.763C10.5054 24.0434 10.5724 24.3637 10.7874 24.5757C11.0024 24.7877 11.3236 24.85 11.6024 24.7339L11.3139 24.0416ZM11.0255 10.5918L27.996 17.6628L28.5729 16.2782L11.6024 9.20715L11.0255 10.5918ZM27.996 16.2782L11.0255 23.3493L11.6024 24.7339L28.5729 17.6628L27.996 16.2782ZM12.0103 24.3201L14.8387 17.2491L13.446 16.692L10.6176 23.763L12.0103 24.3201ZM14.8387 16.692L12.0103 9.62091L10.6176 10.178L13.446 17.2491L14.8387 16.692ZM28.2845 16.2205L14.1424 16.2205L14.1424 17.7205L28.2845 17.7205L28.2845 16.2205Z" fill="white"/>
</svg>
