<svg width="35" height="34" viewBox="0 0 35 34" fill="none" xmlns="http://www.w3.org/2000/svg">
<path d="M23.5912 6.93128L24.3369 7.67705L24.3369 7.67705L23.5912 6.93128ZM23.0254 7.49704L23.7712 8.24282L23.7712 8.24282L23.0254 7.49704ZM27.5686 8.92002L28.3144 8.17424L28.3144 8.17424L27.5686 8.92002ZM25.5799 6.93128L24.8341 7.67705L24.8341 7.67705L25.5799 6.93128ZM27.0029 11.4744L27.7487 12.2202L27.7487 12.2202L27.0029 11.4744ZM27.5686 10.9088L26.8229 10.163L26.8229 10.163L27.5686 10.9088ZM28.875 14.0625L28.875 13.0078L28.875 13.0078L28.875 14.0625ZM28.0752 14.0625L28.0752 15.1172L28.0752 15.1172L28.0752 14.0625ZM27.5687 22.8412L28.3144 22.0954L28.3144 22.0954L27.5687 22.8412ZM27.003 22.2755L26.2572 23.0213L26.2572 23.0213L27.003 22.2755ZM25.5799 26.8187L24.8341 26.0729L24.8341 26.0729L25.5799 26.8187ZM27.5687 24.8299L28.3144 25.5757L28.3144 25.5757L27.5687 24.8299ZM23.0255 26.253L23.7713 25.5072L23.7713 25.5072L23.0255 26.253ZM23.5912 26.8187L22.8454 27.5644L22.8454 27.5644L23.5912 26.8187ZM11.6587 26.8187L12.4045 27.5644L12.4045 27.5644L11.6587 26.8187ZM12.2244 26.2529L12.9702 26.9987L12.9702 26.9987L12.2244 26.2529ZM7.68125 24.8299L8.42703 24.0841L8.42703 24.0841L7.68125 24.8299ZM9.66999 26.8187L8.92422 27.5644L8.92422 27.5644L9.66999 26.8187ZM8.24704 22.2754L8.99282 23.0212L8.99282 23.0212L8.24704 22.2754ZM7.68125 22.8412L8.42703 23.587L8.42703 23.587L7.68125 22.8412ZM7.17483 14.0625L7.17483 13.0078L7.17483 13.0078L7.17483 14.0625ZM6.375 14.0625L6.375 15.1172L6.375 15.1172L6.375 14.0625ZM7.68128 10.9088L6.9355 11.6545L6.9355 11.6545L7.68128 10.9088ZM8.24705 11.4745L8.99282 10.7287L8.99282 10.7287L8.24705 11.4745ZM9.67002 6.93128L10.4158 7.67706L10.4158 7.67706L9.67002 6.93128ZM7.68128 8.92002L8.42705 9.6658L8.42705 9.6658L7.68128 8.92002ZM12.2245 7.49705L11.4787 8.24282L11.4787 8.24282L12.2245 7.49705ZM11.6588 6.93128L12.4045 6.18551L12.4045 6.18551L11.6588 6.93128ZM13.8531 7.77979L14.2575 8.75386L14.2575 8.75386L13.8531 7.77979ZM8.52979 13.1031L9.50386 13.5075L9.50386 13.5075L8.52979 13.1031ZM8.52978 20.6469L9.50385 20.2425L9.50385 20.2425L8.52978 20.6469ZM13.8531 25.9702L14.2575 24.9961L14.2575 24.9961L13.8531 25.9702ZM21.3969 25.9702L20.9925 24.9961L20.9925 24.9961L21.3969 25.9702ZM26.7202 20.6469L27.6943 21.0513L27.6943 21.0513L26.7202 20.6469ZM26.7202 13.1031L25.7461 13.5075L25.7461 13.5075L26.7202 13.1031ZM21.3969 7.77978L20.9925 8.75385L20.9925 8.75385L21.3969 7.77978ZM19.0312 3.16406H16.2188V5.27344H19.0312V3.16406ZM21.4922 6.42486V5.625H19.3828V6.42486H21.4922ZM22.8454 6.1855L22.2796 6.75126L23.7712 8.24282L24.3369 7.67705L22.8454 6.1855ZM28.3144 8.17424L26.3257 6.1855L24.8341 7.67705L26.8229 9.66579L28.3144 8.17424ZM27.7487 12.2202L28.3144 11.6545L26.8229 10.163L26.2572 10.7287L27.7487 12.2202ZM28.875 13.0078L28.0752 13.0078L28.0752 15.1172L28.875 15.1172L28.875 13.0078ZM31.3359 18.2812V15.4687H29.2266V18.2812H31.3359ZM28.0752 20.7422H28.875V18.6328H28.0752V20.7422ZM28.3144 22.0954L27.7487 21.5297L26.2572 23.0213L26.8229 23.587L28.3144 22.0954ZM26.3257 27.5644L28.3144 25.5757L26.8229 24.0841L24.8341 26.0729L26.3257 27.5644ZM22.2797 26.9987L22.8454 27.5644L24.337 26.0729L23.7713 25.5072L22.2797 26.9987ZM21.4922 28.125V27.3252H19.3828V28.125H21.4922ZM16.2188 30.5859H19.0312V28.4766H16.2188V30.5859ZM13.7578 27.3252V28.125H15.8672V27.3252H13.7578ZM12.4045 27.5644L12.9702 26.9987L11.4787 25.5072L10.913 26.0729L12.4045 27.5644ZM6.93548 25.5757L8.92422 27.5644L10.4158 26.0729L8.42703 24.0841L6.93548 25.5757ZM7.50126 21.5296L6.93548 22.0954L8.42703 23.587L8.99282 23.0212L7.50126 21.5296ZM6.375 20.7422H7.17486V18.6328H6.375V20.7422ZM3.91406 15.4688V18.2812H6.02344V15.4688H3.91406ZM7.17483 13.0078L6.375 13.0078L6.375 15.1172L7.17483 15.1172L7.17483 13.0078ZM6.9355 11.6545L7.50127 12.2203L8.99282 10.7287L8.42705 10.163L6.9355 11.6545ZM8.92424 6.18551L6.9355 8.17424L8.42705 9.6658L10.4158 7.67706L8.92424 6.18551ZM12.9703 6.75127L12.4045 6.18551L10.913 7.67706L11.4787 8.24282L12.9703 6.75127ZM13.7578 5.625V6.42482H15.8672V5.625H13.7578ZM14.2575 8.75386C15.1436 8.38597 15.8672 7.51722 15.8672 6.42482H13.7578C13.7578 6.53565 13.6738 6.71224 13.4487 6.80572L14.2575 8.75386ZM11.4787 8.24282C12.2463 9.01041 13.3626 9.12539 14.2575 8.75386L13.4487 6.80572C13.2319 6.89573 13.0538 6.83481 12.9703 6.75127L11.4787 8.24282ZM10.4158 7.67706C10.5531 7.53977 10.7757 7.53976 10.913 7.67706L12.4045 6.18551C11.4435 5.22445 9.8853 5.22445 8.92424 6.18551L10.4158 7.67706ZM8.42705 10.163C8.28976 10.0257 8.28976 9.80309 8.42705 9.6658L6.9355 8.17424C5.97445 9.1353 5.97445 10.6935 6.9355 11.6545L8.42705 10.163ZM9.50386 13.5075C9.87539 12.6127 9.76041 11.4963 8.99282 10.7287L7.50127 12.2203C7.58481 12.3038 7.64573 12.4819 7.55572 12.6987L9.50386 13.5075ZM7.17483 15.1172C8.26723 15.1172 9.13597 14.3936 9.50386 13.5075L7.55572 12.6987C7.46224 12.9238 7.28565 13.0078 7.17483 13.0078V15.1172ZM6.02344 15.4688C6.02344 15.2746 6.18084 15.1172 6.375 15.1172V13.0078C5.01586 13.0078 3.91406 14.1096 3.91406 15.4688H6.02344ZM6.375 18.6328C6.18084 18.6328 6.02344 18.4754 6.02344 18.2812H3.91406C3.91406 19.6404 5.01586 20.7422 6.375 20.7422V18.6328ZM9.50385 20.2425C9.13596 19.3564 8.26724 18.6328 7.17486 18.6328V20.7422C7.28566 20.7422 7.46223 20.8261 7.5557 21.0513L9.50385 20.2425ZM8.99282 23.0212C9.76039 22.2536 9.87537 21.1373 9.50385 20.2425L7.5557 21.0513C7.64571 21.2681 7.58479 21.4461 7.50126 21.5296L8.99282 23.0212ZM8.42703 24.0841C8.28974 23.9468 8.28974 23.7242 8.42703 23.587L6.93548 22.0954C5.97442 23.0565 5.97442 24.6146 6.93548 25.5757L8.42703 24.0841ZM10.913 26.0729C10.7757 26.2102 10.5531 26.2102 10.4158 26.0729L8.92422 27.5644C9.88527 28.5255 11.4435 28.5255 12.4045 27.5644L10.913 26.0729ZM14.2575 24.9961C13.3626 24.6246 12.2463 24.7396 11.4787 25.5072L12.9702 26.9987C13.0538 26.9152 13.2318 26.8542 13.4487 26.9443L14.2575 24.9961ZM15.8672 27.3252C15.8672 26.2328 15.1436 25.364 14.2575 24.9961L13.4487 26.9443C13.6738 27.0378 13.7578 27.2144 13.7578 27.3252H15.8672ZM16.2188 28.4766C16.0246 28.4766 15.8672 28.3192 15.8672 28.125H13.7578C13.7578 29.4841 14.8596 30.5859 16.2188 30.5859V28.4766ZM19.3828 28.125C19.3828 28.3192 19.2254 28.4766 19.0312 28.4766V30.5859C20.3904 30.5859 21.4922 29.4841 21.4922 28.125H19.3828ZM20.9925 24.9961C20.1064 25.364 19.3828 26.2328 19.3828 27.3252H21.4922C21.4922 27.2143 21.5762 27.0378 21.8013 26.9443L20.9925 24.9961ZM23.7713 25.5072C23.0037 24.7396 21.8873 24.6246 20.9925 24.9961L21.8013 26.9443C22.0181 26.8543 22.1962 26.9152 22.2797 26.9987L23.7713 25.5072ZM24.8341 26.0729C24.6968 26.2102 24.4742 26.2102 24.337 26.0729L22.8454 27.5644C23.8065 28.5255 25.3646 28.5255 26.3257 27.5644L24.8341 26.0729ZM26.8229 23.587C26.9602 23.7243 26.9602 23.9469 26.8229 24.0841L28.3144 25.5757C29.2755 24.6146 29.2755 23.0565 28.3144 22.0954L26.8229 23.587ZM25.7461 20.2425C25.3746 21.1374 25.4896 22.2537 26.2572 23.0213L27.7487 21.5297C27.6652 21.4462 27.6043 21.2681 27.6943 21.0513L25.7461 20.2425ZM28.0752 18.6328C26.9828 18.6328 26.114 19.3564 25.7461 20.2425L27.6943 21.0513C27.7878 20.8262 27.9644 20.7422 28.0752 20.7422V18.6328ZM29.2266 18.2812C29.2266 18.4754 29.0692 18.6328 28.875 18.6328V20.7422C30.2341 20.7422 31.3359 19.6404 31.3359 18.2812H29.2266ZM28.875 15.1172C29.0692 15.1172 29.2266 15.2746 29.2266 15.4687H31.3359C31.3359 14.1096 30.2341 13.0078 28.875 13.0078V15.1172ZM25.7461 13.5075C26.114 14.3936 26.9828 15.1172 28.0752 15.1172V13.0078C27.9644 13.0078 27.7878 12.9238 27.6943 12.6987L25.7461 13.5075ZM26.2572 10.7287C25.4896 11.4963 25.3746 12.6126 25.7461 13.5075L27.6943 12.6987C27.6042 12.4818 27.6652 12.3038 27.7487 12.2202L26.2572 10.7287ZM26.8229 9.66579C26.9601 9.80308 26.9601 10.0257 26.8229 10.163L28.3144 11.6545C29.2755 10.6935 29.2755 9.1353 28.3144 8.17424L26.8229 9.66579ZM24.3369 7.67705C24.4742 7.53976 24.6968 7.53976 24.8341 7.67705L26.3257 6.1855C25.3646 5.22444 23.8064 5.22444 22.8454 6.1855L24.3369 7.67705ZM20.9925 8.75385C21.8873 9.12537 23.0036 9.01039 23.7712 8.24282L22.2796 6.75126C22.1961 6.83479 22.0181 6.89571 21.8013 6.8057L20.9925 8.75385ZM19.3828 6.42486C19.3828 7.51724 20.1064 8.38596 20.9925 8.75385L21.8013 6.8057C21.5761 6.71223 21.4922 6.53566 21.4922 6.42486H19.3828ZM16.2188 3.16406C14.8596 3.16406 13.7578 4.26586 13.7578 5.625H15.8672C15.8672 5.43084 16.0246 5.27344 16.2188 5.27344V3.16406ZM19.0312 5.27344C19.2254 5.27344 19.3828 5.43084 19.3828 5.625H21.4922C21.4922 4.26586 20.3904 3.16406 19.0312 3.16406V5.27344ZM19.3828 16.875C19.3828 17.8458 18.5958 18.6328 17.625 18.6328V20.7422C19.7608 20.7422 21.4922 19.0108 21.4922 16.875H19.3828ZM17.625 18.6328C16.6542 18.6328 15.8672 17.8458 15.8672 16.875H13.7578C13.7578 19.0108 15.4892 20.7422 17.625 20.7422V18.6328ZM15.8672 16.875C15.8672 15.9042 16.6542 15.1172 17.625 15.1172V13.0078C15.4892 13.0078 13.7578 14.7392 13.7578 16.875H15.8672ZM17.625 15.1172C18.5958 15.1172 19.3828 15.9042 19.3828 16.875H21.4922C21.4922 14.7392 19.7608 13.0078 17.625 13.0078V15.1172Z" fill="#242527" fill-opacity="0.8"/>
</svg>
