<svg width="21" height="21" viewBox="0 0 21 21" fill="none" xmlns="http://www.w3.org/2000/svg">
<path d="M3.5 3.71875C3.13756 3.71875 2.84375 4.01256 2.84375 4.375C2.84375 4.73744 3.13756 5.03125 3.5 5.03125L3.5 3.71875ZM8.75 4.375L9.40625 4.375L8.75 4.375ZM17.5 5.03125C17.8624 5.03125 18.1563 4.73744 18.1563 4.375C18.1563 4.01256 17.8624 3.71875 17.5 3.71875L17.5 5.03125ZM3.5 9.84375C3.13756 9.84375 2.84375 10.1376 2.84375 10.5C2.84375 10.8624 3.13756 11.1563 3.5 11.1563V9.84375ZM14 10.5L14.6563 10.5L14 10.5ZM17.5 17.2813C17.8624 17.2813 18.1563 16.9874 18.1563 16.625C18.1563 16.2626 17.8624 15.9688 17.5 15.9688V17.2813ZM5.25 14.875L5.25 15.5313L5.25 14.875ZM5.25 18.375L5.25 19.0313L5.25 18.375ZM3.5 16.625L4.15625 16.625L3.5 16.625ZM15.75 8.75L15.75 9.40625L15.75 8.75ZM17.5 10.5L18.1563 10.5L17.5 10.5ZM15.75 12.25L15.75 12.9063L15.75 12.25ZM10.5 2.625L10.5 3.28125L10.5 2.625ZM10.5 6.125L10.5 6.78125L10.5 6.125ZM3.5 5.03125L8.75 5.03125L8.75 3.71875L3.5 3.71875L3.5 5.03125ZM12.25 5.03125L17.5 5.03125L17.5 3.71875L12.25 3.71875L12.25 5.03125ZM3.5 11.1563H14V9.84375H3.5V11.1563ZM7 17.2813H17.5V15.9688H7V17.2813ZM5.25 15.5313C5.85406 15.5313 6.34375 16.0209 6.34375 16.625L7.65625 16.625C7.65625 15.2961 6.57894 14.2188 5.25 14.2188L5.25 15.5313ZM6.34375 16.625C6.34375 17.2291 5.85406 17.7188 5.25 17.7188L5.25 19.0313C6.57894 19.0313 7.65625 17.9539 7.65625 16.625L6.34375 16.625ZM5.25 17.7188C4.64594 17.7188 4.15625 17.2291 4.15625 16.625L2.84375 16.625C2.84375 17.9539 3.92106 19.0313 5.25 19.0313L5.25 17.7188ZM4.15625 16.625C4.15625 16.0209 4.64594 15.5313 5.25 15.5313L5.25 14.2188C3.92106 14.2188 2.84375 15.2961 2.84375 16.625L4.15625 16.625ZM15.75 9.40625C16.3541 9.40625 16.8438 9.89594 16.8438 10.5L18.1563 10.5C18.1563 9.17107 17.0789 8.09375 15.75 8.09375L15.75 9.40625ZM16.8438 10.5C16.8438 11.1041 16.3541 11.5938 15.75 11.5938L15.75 12.9063C17.0789 12.9063 18.1563 11.8289 18.1563 10.5L16.8438 10.5ZM15.75 11.5938C15.1459 11.5938 14.6563 11.1041 14.6563 10.5L13.3438 10.5C13.3438 11.8289 14.4211 12.9063 15.75 12.9063L15.75 11.5938ZM14.6563 10.5C14.6563 9.89594 15.1459 9.40625 15.75 9.40625L15.75 8.09375C14.4211 8.09375 13.3438 9.17107 13.3438 10.5L14.6563 10.5ZM10.5 3.28125C11.1041 3.28125 11.5938 3.77094 11.5938 4.375L12.9063 4.375C12.9063 3.04607 11.8289 1.96875 10.5 1.96875L10.5 3.28125ZM11.5938 4.375C11.5938 4.97906 11.1041 5.46875 10.5 5.46875L10.5 6.78125C11.8289 6.78125 12.9063 5.70394 12.9063 4.375L11.5938 4.375ZM10.5 5.46875C9.89594 5.46875 9.40625 4.97906 9.40625 4.375L8.09375 4.375C8.09375 5.70394 9.17107 6.78125 10.5 6.78125L10.5 5.46875ZM9.40625 4.375C9.40625 3.77094 9.89594 3.28125 10.5 3.28125L10.5 1.96875C9.17106 1.96875 8.09375 3.04607 8.09375 4.375L9.40625 4.375Z" fill="#BCA37B"/>
</svg>
