<svg width="20" height="20" viewBox="0 0 20 20" fill="none" xmlns="http://www.w3.org/2000/svg">
<path d="M10 19C14.9706 19 19 14.9706 19 10C19 5.02944 14.9706 1 10 1C5.02944 1 1 5.02944 1 10C1 14.9706 5.02944 19 10 19Z" fill="white"/>
<path d="M10 14H11C11.6667 14 13 13.6 13 12C13 10.4 11.6667 10 11 10H9C8.33333 10 7 9.6 7 8C7 6.4 8.33333 6 9 6H10M10 14H7M10 14V16M13 6H10M10 6V4M19 10C19 14.9706 14.9706 19 10 19C5.02944 19 1 14.9706 1 10C1 5.02944 5.02944 1 10 1C14.9706 1 19 5.02944 19 10Z" stroke="#242527" stroke-width="1.5" stroke-linecap="round" stroke-linejoin="round"/>
</svg>
