<svg width="76" height="86" viewBox="0 0 76 86" fill="none" xmlns="http://www.w3.org/2000/svg">
<g opacity="0.3">
<path d="M55.4644 34.4648C56.7336 33.1956 56.7336 31.1378 55.4644 29.8686C54.1952 28.5994 52.1374 28.5994 50.8682 29.8686L55.4644 34.4648ZM33.6663 51.6667L31.3682 53.9648C32.6374 55.234 34.6952 55.234 35.9644 53.9648L33.6663 51.6667ZM29.4644 42.8686C28.1952 41.5994 26.1374 41.5994 24.8682 42.8686C23.599 44.1378 23.599 46.1956 24.8682 47.4648L29.4644 42.8686ZM37.9997 4L39.4531 1.09311C38.5382 0.63563 37.4612 0.63563 36.5462 1.09311L37.9997 4ZM3.33301 21.3333L1.87956 18.4264C0.778516 18.977 0.0830081 20.1023 0.0830081 21.3333H3.33301ZM72.6663 21.3333H75.9163C75.9163 20.1023 75.2208 18.977 74.1198 18.4264L72.6663 21.3333ZM37.9997 82L37.1068 85.1249C37.6904 85.2917 38.309 85.2917 38.8925 85.1249L37.9997 82ZM50.8682 29.8686L31.3682 49.3686L35.9644 53.9648L55.4644 34.4648L50.8682 29.8686ZM24.8682 47.4648L31.3682 53.9648L35.9644 49.3686L29.4644 42.8686L24.8682 47.4648ZM36.5462 1.09311L1.87956 18.4264L4.78645 24.2402L39.4531 6.90689L36.5462 1.09311ZM74.1198 18.4264L39.4531 1.09311L36.5462 6.90689L71.2129 24.2402L74.1198 18.4264ZM38.8925 85.1249C51.4161 81.5468 60.6596 71.1078 66.7085 59.1512C72.7813 47.1476 75.9163 33.0924 75.9163 21.3333H69.4163C69.4163 32.0782 66.5188 45.1276 60.9085 56.2169C55.2745 67.3533 47.1847 75.9957 37.1068 78.875L38.8925 85.1249ZM0.0830081 21.3333C0.0830081 33.0924 3.21804 47.1476 9.2908 59.1512C15.3398 71.1078 24.5832 81.5468 37.1068 85.1249L38.8925 78.875C28.8146 75.9957 20.7248 67.3533 15.0908 56.2169C9.48059 45.1276 6.58301 32.0782 6.58301 21.3333H0.0830081Z" fill="#242527"/>
</g>
</svg>
