<svg width="19" height="18" viewBox="0 0 19 18" fill="none" xmlns="http://www.w3.org/2000/svg">
<path d="M13.1979 7.52051H12.6432C12.6432 7.82685 12.8916 8.0752 13.1979 8.0752V7.52051ZM14.3993 12.5872C14.1342 12.7406 14.0435 13.08 14.1969 13.3451C14.3503 13.6103 14.6897 13.7009 14.9548 13.5475L14.3993 12.5872ZM6.5474 8.19283C6.83868 8.28772 7.15173 8.12851 7.24662 7.83723C7.34151 7.54595 7.1823 7.2329 6.89102 7.13801L6.5474 8.19283ZM4.04517 13.5475C4.31034 13.7009 4.64966 13.6103 4.80306 13.3451C4.95645 13.08 4.86584 12.7406 4.60066 12.5872L4.04517 13.5475ZM9.5 8.99967L9.89222 8.60745C9.6756 8.39083 9.3244 8.39083 9.10778 8.60745L9.5 8.99967ZM8.94531 15.6559C8.94531 15.9623 9.19365 16.2106 9.5 16.2106C9.80635 16.2106 10.0547 15.9623 10.0547 15.6559H8.94531ZM11.3265 11.6106C11.5431 11.8273 11.8944 11.8273 12.111 11.6106C12.3276 11.394 12.3276 11.0428 12.111 10.8262L11.3265 11.6106ZM6.88903 10.8262C6.67241 11.0428 6.67241 11.394 6.88903 11.6106C7.10565 11.8273 7.45685 11.8273 7.67347 11.6106L6.88903 10.8262ZM6.35677 6.78092C6.35677 5.04497 7.76404 3.6377 9.5 3.6377V2.52832C7.15135 2.52832 5.2474 4.43228 5.2474 6.78092H6.35677ZM9.5 3.6377C11.236 3.6377 12.6432 5.04497 12.6432 6.78092H13.7526C13.7526 4.43228 11.8486 2.52832 9.5 2.52832V3.6377ZM12.6432 6.78092V7.52051H13.7526V6.78092H12.6432ZM5.2474 6.78092V7.52051H6.35677V6.78092H5.2474ZM13.1979 8.0752C14.5254 8.0752 15.6016 9.15134 15.6016 10.4788H16.7109C16.7109 8.53865 15.1381 6.96582 13.1979 6.96582V8.0752ZM15.6016 10.4788C15.6016 11.3732 15.1145 12.1736 14.3993 12.5872L14.9548 13.5475C16.0082 12.9382 16.7109 11.7745 16.7109 10.4788H15.6016ZM3.39844 10.4788C3.39844 9.15134 4.47459 8.0752 5.80208 8.0752V6.96582C3.8619 6.96582 2.28906 8.53865 2.28906 10.4788H3.39844ZM5.80208 8.0752C6.06315 8.0752 6.31346 8.11662 6.5474 8.19283L6.89102 7.13801C6.54748 7.0261 6.18128 6.96582 5.80208 6.96582V8.0752ZM4.60066 12.5872C3.88554 12.1736 3.39844 11.3732 3.39844 10.4788H2.28906C2.28906 11.7745 2.9918 12.9382 4.04517 13.5475L4.60066 12.5872ZM8.94531 8.99967V15.6559H10.0547V8.99967H8.94531ZM12.111 10.8262L9.89222 8.60745L9.10778 9.3919L11.3265 11.6106L12.111 10.8262ZM9.10778 8.60745L6.88903 10.8262L7.67347 11.6106L9.89222 9.3919L9.10778 8.60745Z" fill="white"/>
</svg>
