<svg width="32" height="32" viewBox="0 0 32 32" fill="none" xmlns="http://www.w3.org/2000/svg">
<path d="M26.6663 28V29C27.2186 29 27.6663 28.5523 27.6663 28H26.6663ZM5.33301 28H4.33301C4.33301 28.5523 4.78072 29 5.33301 29V28ZM10.6663 21H21.333V19H10.6663V21ZM25.6663 25.3333V28H27.6663V25.3333H25.6663ZM6.33301 28V25.3333H4.33301V28H6.33301ZM21.333 21C23.7262 21 25.6663 22.9401 25.6663 25.3333H27.6663C27.6663 21.8355 24.8308 19 21.333 19V21ZM10.6663 19C7.16854 19 4.33301 21.8355 4.33301 25.3333H6.33301C6.33301 22.9401 8.27311 21 10.6663 21V19ZM20.333 9.33333C20.333 11.7266 18.3929 13.6667 15.9997 13.6667V15.6667C19.4975 15.6667 22.333 12.8311 22.333 9.33333H20.333ZM15.9997 13.6667C13.6064 13.6667 11.6663 11.7266 11.6663 9.33333H9.66634C9.66634 12.8311 12.5019 15.6667 15.9997 15.6667V13.6667ZM11.6663 9.33333C11.6663 6.9401 13.6064 5 15.9997 5V3C12.5019 3 9.66634 5.83553 9.66634 9.33333H11.6663ZM15.9997 5C18.3929 5 20.333 6.9401 20.333 9.33333H22.333C22.333 5.83553 19.4975 3 15.9997 3V5ZM5.33301 29H26.6663V27H5.33301V29Z" fill="#4C4C4D"/>
</svg>
