<svg width="18" height="18" viewBox="0 0 18 18" fill="none" xmlns="http://www.w3.org/2000/svg">
<path d="M11.25 7.3125C11.5607 7.3125 11.8125 7.06066 11.8125 6.75C11.8125 6.43934 11.5607 6.1875 11.25 6.1875V7.3125ZM9.75 6.1875C9.43934 6.1875 9.1875 6.43934 9.1875 6.75C9.1875 7.06066 9.43934 7.3125 9.75 7.3125V6.1875ZM10.6137 3.68174C10.8334 3.46207 10.8334 3.10592 10.6137 2.88625C10.3941 2.66658 10.0379 2.66658 9.81824 2.88625L10.6137 3.68174ZM8.22725 4.47724C8.00758 4.69691 8.00758 5.05306 8.22725 5.27273C8.44692 5.4924 8.80308 5.4924 9.02275 5.27273L8.22725 4.47724ZM6.1875 3.75C6.1875 4.06066 6.43934 4.3125 6.75 4.3125C7.06066 4.3125 7.3125 4.06066 7.3125 3.75H6.1875ZM7.3125 2.25C7.3125 1.93934 7.06066 1.6875 6.75 1.6875C6.43934 1.6875 6.1875 1.93934 6.1875 2.25H7.3125ZM4.47728 5.27278C4.69695 5.49245 5.05311 5.49245 5.27278 5.27278C5.49245 5.05311 5.49245 4.69695 5.27278 4.47728L4.47728 5.27278ZM3.68179 2.88629C3.46212 2.66662 3.10596 2.66662 2.88629 2.88629C2.66662 3.10596 2.66662 3.46212 2.88629 3.68179L3.68179 2.88629ZM3.75 7.3125C4.06066 7.3125 4.3125 7.06066 4.3125 6.75C4.3125 6.43934 4.06066 6.1875 3.75 6.1875V7.3125ZM2.25 6.1875C1.93934 6.1875 1.6875 6.43934 1.6875 6.75C1.6875 7.06066 1.93934 7.3125 2.25 7.3125V6.1875ZM5.27278 9.02275C5.49245 8.80308 5.49245 8.44692 5.27278 8.22725C5.05311 8.00758 4.69695 8.00758 4.47728 8.22725L5.27278 9.02275ZM2.88629 9.81824C2.66662 10.0379 2.66662 10.3941 2.88629 10.6137C3.10596 10.8334 3.46212 10.8334 3.68179 10.6137L2.88629 9.81824ZM6.1875 11.25C6.1875 11.5607 6.43934 11.8125 6.75 11.8125C7.06066 11.8125 7.3125 11.5607 7.3125 11.25H6.1875ZM7.3125 9.75C7.3125 9.43934 7.06066 9.1875 6.75 9.1875C6.43934 9.1875 6.1875 9.43934 6.1875 9.75H7.3125ZM14.6023 15.3978C14.8219 15.6174 15.1781 15.6174 15.3978 15.3978C15.6174 15.1781 15.6174 14.8219 15.3978 14.6023L14.6023 15.3978ZM9.39775 8.60225C9.17808 8.38258 8.82192 8.38258 8.60225 8.60225C8.38258 8.82192 8.38258 9.17808 8.60225 9.39775L9.39775 8.60225ZM11.25 6.1875H9.75V7.3125H11.25V6.1875ZM9.81824 2.88625L8.22725 4.47724L9.02275 5.27273L10.6137 3.68174L9.81824 2.88625ZM7.3125 3.75V2.25H6.1875V3.75H7.3125ZM5.27278 4.47728L3.68179 2.88629L2.88629 3.68179L4.47728 5.27278L5.27278 4.47728ZM3.75 6.1875H2.25V7.3125H3.75V6.1875ZM4.47728 8.22725L2.88629 9.81824L3.68179 10.6137L5.27278 9.02275L4.47728 8.22725ZM7.3125 11.25V9.75H6.1875V11.25H7.3125ZM15.3978 14.6023L9.39775 8.60225L8.60225 9.39775L14.6023 15.3978L15.3978 14.6023Z" fill="white"/>
</svg>
