<svg width="16" height="16" viewBox="0 0 16 16" fill="none" xmlns="http://www.w3.org/2000/svg">
<path d="M8.5 11.3267C8.5 11.0505 8.27614 10.8267 8 10.8267C7.72386 10.8267 7.5 11.0505 7.5 11.3267H8.5ZM7.5 11.3333C7.5 11.6095 7.72386 11.8333 8 11.8333C8.27614 11.8333 8.5 11.6095 8.5 11.3333H7.5ZM8.5 4.66667C8.5 4.39052 8.27614 4.16667 8 4.16667C7.72386 4.16667 7.5 4.39052 7.5 4.66667H8.5ZM7.5 9.33333C7.5 9.60948 7.72386 9.83333 8 9.83333C8.27614 9.83333 8.5 9.60948 8.5 9.33333H7.5ZM7.5 11.3267V11.3333H8.5V11.3267H7.5ZM7.5 4.66667V9.33333H8.5V4.66667H7.5ZM13.5 8C13.5 11.0376 11.0376 13.5 8 13.5V14.5C11.5899 14.5 14.5 11.5899 14.5 8H13.5ZM8 13.5C4.96243 13.5 2.5 11.0376 2.5 8H1.5C1.5 11.5899 4.41015 14.5 8 14.5V13.5ZM2.5 8C2.5 4.96243 4.96243 2.5 8 2.5V1.5C4.41015 1.5 1.5 4.41015 1.5 8H2.5ZM8 2.5C11.0376 2.5 13.5 4.96243 13.5 8H14.5C14.5 4.41015 11.5899 1.5 8 1.5V2.5Z" fill="#001A72"/>
</svg>
