<svg width="22" height="16" viewBox="0 0 22 16" fill="none" xmlns="http://www.w3.org/2000/svg">
<path d="M5.5814 0C0.232559 8.20282 0 10.0507 0 11.1775C0 15.0535 2.88372 16 4.83721 16C7.53488 16 9.5814 14.1972 9.5814 11.493C9.5814 9.55493 8.51163 8.11268 6.83721 7.52676L10.6047 0H5.5814ZM18.2326 7.52676L22 0H16.9767C11.6279 8.20282 11.3953 10.0507 11.3953 11.1775C11.3953 15.0535 14.2791 16 16.2326 16C18.9302 16 20.9767 14.1972 20.9767 11.493C20.9767 9.55493 19.907 8.11268 18.2326 7.52676Z" fill="#DAAA63"/>
</svg>
